<svg width="262" height="57" viewBox="0 0 262 57" fill="none" xmlns="http://www.w3.org/2000/svg">
<path d="M220.811 38.6833L220.896 38.1904L220.88 38.1877L220.864 38.186L220.811 38.6833ZM228.822 39.41L228.897 38.9157L228.822 39.41ZM232.053 39.7413L232.025 40.2405L232.053 39.7413ZM238.572 39.953L238.574 39.453L238.572 39.953ZM245.061 40.1103L245.018 39.6122L245.061 40.1103ZM251.569 39.8546L251.612 40.3528L251.569 39.8546ZM254.782 39.4161L254.874 39.9074L254.782 39.4161ZM261.09 35.003L260.685 35.296L261.09 35.003ZM255.652 31.9876L255.464 32.4506L255.652 31.9876ZM249.345 30.5581L249.379 30.0592L249.345 30.5581ZM246.121 30.1478L246.213 29.6564L246.121 30.1478ZM239.681 29.2247L239.661 29.7243L239.681 29.2247ZM236.414 29.0994L236.432 28.5997L236.414 29.0994ZM233.171 28.9793L233.19 28.4797L233.171 28.9793ZM226.697 28.5945L226.721 29.0939L226.697 28.5945ZM240.746 27.6951L240.808 28.1913L240.746 27.6951ZM250.374 26.1582L250.489 26.6447L250.374 26.1582ZM256.7 24.6335L256.895 25.094L256.7 24.6335ZM259.586 23.1859L259.839 23.6173L259.586 23.1859ZM257.034 17.8159L257.158 17.3316L257.034 17.8159ZM253.852 17.1117L253.944 16.6202L253.852 17.1117ZM250.601 16.7818L250.61 16.2819L250.601 16.7818ZM247.337 16.718L247.348 16.2181L247.337 16.718ZM244.089 16.5619L244.052 17.0605L244.089 16.5619ZM240.843 16.4431L240.842 15.9431L240.843 16.4431ZM237.614 16.6458L237.675 17.142L237.614 16.6458ZM227.872 17.2071L227.932 17.7035L227.872 17.2071ZM222.383 17.9622L222.401 18.4619L222.383 17.9622ZM223.26 17.531L223.12 17.0511L223.26 17.531ZM229.517 15.7304L229.654 16.2114L229.517 15.7304ZM235.716 13.8072L235.858 14.2867L235.716 13.8072ZM245.158 11.2753L245.006 10.7991L245.158 11.2753ZM248.193 10.1163L248.396 10.5729L248.193 10.1163ZM251.183 8.86813L251.002 8.40214L251.183 8.86813ZM254.178 7.64221L253.98 7.18286L254.178 7.64221ZM256.45 4.1444L256.649 3.68577L256.45 4.1444ZM243.681 4.08768L243.7 4.58732L243.681 4.08768ZM240.451 4.43371L240.363 3.94137L240.451 4.43371ZM237.248 5.02718L237.153 4.53629L237.248 5.02718ZM227.563 6.31347L227.631 6.80878L227.563 6.31347ZM224.376 6.86178L224.477 7.35148L224.376 6.86178ZM221.187 7.55664L221.299 8.04397L221.187 7.55664ZM217.98 8.10359L218.035 8.60048L217.98 8.10359ZM214.796 8.69037L214.671 8.20624L214.796 8.69037ZM211.596 9.32069L211.528 8.82537L211.596 9.32069ZM220.258 6.738L220.427 7.20854L220.258 6.738ZM226.377 4.65337L226.147 4.20948L226.377 4.65337ZM213.166 1.5341L213.196 2.03319L213.166 1.5341ZM209.928 1.83368L209.866 1.33755L209.928 1.83368ZM206.701 2.18832L206.748 2.68609L206.701 2.18832ZM197.039 3.52116L196.924 3.03448L197.039 3.52116ZM193.866 4.25288L193.976 4.74061L193.866 4.25288ZM190.718 5.07172L190.86 5.55129L190.718 5.07172ZM187.577 5.9171L187.696 6.40289L187.577 5.9171ZM184.433 6.74132L184.297 6.25992L184.433 6.74132ZM181.348 7.76282L181.527 8.22969L181.348 7.76282ZM178.282 8.84335L178.129 8.36742L178.282 8.84335ZM177.409 8.93233L177.669 9.35978L177.409 8.93233ZM181.519 5.51898L181.063 5.3139L181.519 5.51898ZM177.6 2.35427L177.493 2.84257L177.6 2.35427ZM174.423 1.78517L174.492 1.28989L174.423 1.78517ZM171.209 1.35929L171.147 1.85532L171.209 1.35929ZM167.966 1.01496L168.009 0.516789L167.966 1.01496ZM148.507 2.06706L148.595 2.55931L148.507 2.06706ZM142.131 3.34985L142.028 2.8606L142.131 3.34985ZM138.963 4.06262L138.847 3.57637L138.963 4.06262ZM133.145 6.7543L132.811 6.38181L133.145 6.7543ZM131.362 8.20831L131.633 8.62853L131.362 8.20831ZM129.759 7.37548L129.38 7.70176L129.759 7.37548ZM127.206 5.57935L127.389 5.11391L127.206 5.57935ZM124.153 4.44496L123.988 4.91675L124.153 4.44496ZM121.045 3.4785L121.176 2.99601L121.045 3.4785ZM98.4544 1.04423L98.4337 0.544658L98.4544 1.04423ZM82.2748 2.21259L82.1602 1.72591L82.2748 2.21259ZM79.2152 3.18104L79.4024 3.64466L79.2152 3.18104ZM81.8736 8.86048L81.7032 9.33053L81.8736 8.86048ZM82.0853 9.0254L82.2275 8.54604L82.0853 9.0254ZM79.1947 8.15323L79.341 7.67513L79.1947 8.15323ZM66.708 4.53696L66.5759 5.01918L66.708 4.53696ZM60.319 3.30755L60.2012 3.79348L60.319 3.30755ZM50.6764 1.83409L50.6259 2.33154L50.6764 1.83409ZM47.4519 1.46855L47.3897 1.96467L47.4519 1.46855ZM36.1615 4.61434L35.9745 5.07807L36.1615 4.61434ZM42.2789 6.73566L42.4231 6.25689L42.2789 6.73566ZM45.4005 7.61402L45.2738 8.09771L45.4005 7.61402ZM51.2588 9.34768L51.1104 9.82515L51.2588 9.34768ZM50.8552 9.28755L50.725 9.77032L50.8552 9.28755ZM44.4433 8.22505L44.5399 7.73447L44.4433 8.22505ZM34.8854 6.28988L34.9714 5.79733L34.8854 6.28988ZM5.9948 4.2608L5.82039 3.7922L5.9948 4.2608ZM5.70629 5.91899L5.35548 6.27527L5.70629 5.91899ZM8.35138 7.67143L8.15877 8.13285L8.35138 7.67143ZM11.3319 8.94727L11.131 9.40512L11.3319 8.94727ZM17.4739 11.0067L17.3283 11.485L17.4739 11.0067ZM20.5757 11.9706L20.4245 12.4472L20.5757 11.9706ZM26.7238 14.1564L26.5768 14.6343L26.7238 14.1564ZM32.9815 15.8927L32.8401 16.3723L32.9815 15.8927ZM36.1204 16.7314L36.2371 16.2452L36.1204 16.7314ZM34.5691 17.1447L34.6244 16.6478L34.5691 17.1447ZM31.3145 16.9167L31.3 17.4165L31.3145 16.9167ZM28.0537 16.8867L28.0483 16.3868L28.0537 16.8867ZM18.3421 16.5356L18.3364 17.0355L18.3421 16.5356ZM5.41403 17.901L5.32276 17.4094L5.41403 17.901ZM1.60453 23.6444L1.28916 24.0325L1.60453 23.6444ZM4.36324 25.3339L4.16058 25.791L4.36324 25.3339ZM10.6448 27.027L10.489 27.5021L10.6448 27.027ZM20.3061 28.1838L20.2756 28.6829L20.3061 28.1838ZM25.7921 28.4596L25.7918 28.9596L25.7921 28.4596ZM24.7876 28.4433L24.7824 28.9432L24.7876 28.4433ZM21.5342 28.5104L21.5085 28.0111L21.5342 28.5104ZM15.0785 29.3073L14.9823 28.8167L15.0785 29.3073ZM11.8823 29.829L11.8175 29.3332L11.8823 29.829ZM8.67488 30.3673L8.57446 29.8775L8.67488 30.3673ZM5.52121 31.2209L5.36075 30.7473L5.52121 31.2209ZM2.67149 32.6944L2.96598 33.0985L2.67149 32.6944ZM1.46698 37.2759L1.13853 37.6529L1.46698 37.2759ZM20.3172 40.3342L20.2948 40.8337L20.3172 40.3342ZM23.5645 40.3118L23.5352 39.8127L23.5645 40.3118ZM26.8258 40.2652L26.8407 39.7654L26.8258 40.2652ZM30.0788 40.0638L30.0023 39.5697L30.0788 40.0638ZM33.3027 39.7162L33.333 40.2153L33.3027 39.7162ZM40.1951 39.4933L40.3217 39.977L40.1951 39.4933ZM21.7031 44.3936L21.5416 43.9204L21.7031 44.3936ZM18.6296 45.4325L18.7883 45.9066L18.6296 45.4325ZM11.0453 53.5175L11.0486 53.0175L11.0453 53.5175ZM17.5481 53.0556L17.5064 52.5573L17.5481 53.0556ZM23.9901 52.1668L24.0253 52.6656L23.9901 52.1668ZM33.6237 50.8709L33.7252 51.3604L33.6237 50.8709ZM43.2323 49.1786L43.2837 49.6759L43.2323 49.1786ZM49.6427 48.047L49.5633 47.5533L49.6427 48.047ZM43.4988 49.7871L43.5987 50.277L43.4988 49.7871ZM40.3853 50.7599L40.5816 51.2198L40.3853 50.7599ZM34.6201 53.5152L34.9217 53.9139L34.6201 53.5152ZM34.7519 55.0444L34.9499 54.5852L34.7519 55.0444ZM40.981 55.9479L41.0289 56.4456L40.981 55.9479ZM47.4755 55.7373L47.3923 55.2443L47.4755 55.7373ZM50.7069 55.3226L50.7508 55.8207L50.7069 55.3226ZM53.9352 54.9173L54.0159 55.4107L53.9352 54.9173ZM60.4129 54.2352L60.501 54.7274L60.4129 54.2352ZM66.7792 52.9006L66.6671 52.4133L66.7792 52.9006ZM73.1035 51.3931L72.941 50.9202L73.1035 51.3931ZM76.2085 50.4192L76.3451 50.9002L76.2085 50.4192ZM79.3546 49.5848L79.4743 50.0702L79.3546 49.5848ZM84.0936 47.9862L83.8747 47.5367L84.0936 47.9862ZM82.739 48.5995L82.9461 49.0545L82.739 48.5995ZM80.206 50.5119L80.5855 50.8375L80.206 50.5119ZM82.8039 54.4321L82.9062 53.9427L82.8039 54.4321ZM86.0017 55.0767L86.097 54.5859L86.0017 55.0767ZM98.9506 56.0639L98.9164 55.5651L98.9506 56.0639ZM102.203 55.8885L102.222 56.3881L102.203 55.8885ZM108.687 55.447L108.602 54.9543L108.687 55.447ZM118.364 54.2377L118.262 53.7482L118.364 54.2377ZM124.635 52.5448L124.432 52.0878L124.635 52.5448ZM127.638 51.2684L127.45 50.8051L127.638 51.2684ZM131.735 48.8295L131.321 49.1094L131.735 48.8295ZM133.523 50.3956L133.244 50.811L133.523 50.3956ZM139.376 53.0712L139.472 52.5805L139.376 53.0712ZM142.523 53.9062L142.363 54.3801L142.523 53.9062ZM152.16 55.3668L152.181 54.8673L152.16 55.3668ZM158.645 55.8816L158.664 55.3819L158.645 55.8816ZM161.896 55.986L161.882 56.4858L161.896 55.986ZM165.148 56.0904L165.166 55.5908L165.148 56.0904ZM171.662 55.797L171.692 56.296L171.662 55.797ZM174.904 55.4627L174.832 54.9679L174.904 55.4627ZM180.927 53.3155L181.218 53.7221L180.927 53.3155ZM179.183 49.0312L179.402 48.5819L179.183 49.0312ZM181.733 49.4435L181.856 48.9589L181.733 49.4435ZM194.287 52.8576L194.421 52.376L194.287 52.8576ZM200.69 53.9904L200.778 53.4983L200.69 53.9904ZM210.351 55.3255L210.258 55.8167L210.351 55.3255ZM220.088 55.9295L220.11 55.43L220.088 55.9295ZM223.336 55.9973L223.337 56.4973L223.336 55.9973ZM226.574 55.663L226.673 56.153L226.574 55.663ZM216.71 49.265L216.554 49.7401L216.71 49.265ZM213.631 48.2408L213.471 48.7146L213.631 48.2408ZM211.251 47.6146L211.188 48.1106L211.251 47.6146ZM212.025 47.7524L212.1 47.258L212.025 47.7524ZM221.618 49.4546L221.535 49.9477L221.618 49.4546ZM224.83 50.0494L224.731 50.5394L224.83 50.0494ZM228.013 50.6736L228.106 50.1823L228.013 50.6736ZM231.199 51.2547L231.112 51.7472L231.199 51.2547ZM234.419 51.7358L234.357 52.232L234.419 51.7358ZM240.871 52.6651L240.924 52.168L240.871 52.6651ZM244.103 53.0036L244.154 52.5062L244.103 53.0036ZM247.336 53.1481L247.33 52.6481L247.336 53.1481ZM250.589 53.3422L250.653 52.8464L250.589 53.3422ZM253.84 53.3668L253.782 52.8701L253.84 53.3668ZM256.658 52.4889L256.41 52.0552L256.658 52.4889ZM253.757 49.2641L253.553 49.7205L253.757 49.2641ZM250.791 47.9491L250.992 47.4914L250.791 47.9491ZM241.569 44.8503L241.697 44.3672L241.569 44.8503ZM232.235 41.9501L232.403 41.479L232.235 41.9501ZM229.125 41.0323L229.24 40.5456L229.125 41.0323ZM225.965 40.3141L225.858 40.8024L225.965 40.3141ZM220.962 39.0525L220.81 39.529L220.821 39.5323L220.962 39.0525ZM220.809 39.0036L220.961 38.5273L220.946 38.5226L220.931 38.5188L220.809 39.0036ZM220.712 38.6727L220.659 39.1699L220.759 39.1805L220.811 38.6833L220.864 38.186L220.765 38.1755L220.712 38.6727ZM220.811 38.6833L220.727 39.1761C222.834 39.5368 224.466 39.714 225.603 39.695L225.595 39.1951L225.587 38.6952C224.545 38.7126 222.988 38.5486 220.896 38.1904L220.811 38.6833ZM225.595 39.1951L225.603 39.695C226.665 39.6773 227.713 39.7471 228.747 39.9043L228.822 39.41L228.897 38.9157C227.807 38.75 226.703 38.6765 225.587 38.6952L225.595 39.1951ZM228.822 39.41L228.747 39.9043C229.825 40.0683 230.918 40.1803 232.025 40.2405L232.053 39.7413L232.08 39.242C231.004 39.1835 229.943 39.0747 228.897 38.9157L228.822 39.41ZM232.053 39.7413L232.025 40.2405C233.12 40.3 234.213 40.3491 235.302 40.3877L235.32 39.888L235.337 39.3883C234.254 39.35 233.168 39.3012 232.08 39.242L232.053 39.7413ZM235.32 39.888L235.302 40.3877C236.393 40.4263 237.482 40.4481 238.57 40.453L238.572 39.953L238.574 39.453C237.497 39.4482 236.418 39.4266 235.337 39.3883L235.32 39.888ZM238.572 39.953L238.57 40.453C239.638 40.4577 240.706 40.5078 241.772 40.6032L241.817 40.1051L241.861 39.6071C240.767 39.5093 239.671 39.4579 238.574 39.453L238.572 39.953ZM241.817 40.1051L241.772 40.6032C242.882 40.7024 243.993 40.7042 245.104 40.6085L245.061 40.1103L245.018 39.6122C243.965 39.7028 242.913 39.7012 241.861 39.6071L241.817 40.1051ZM245.061 40.1103L245.104 40.6085C246.17 40.5166 247.239 40.4745 248.311 40.482L248.315 39.982L248.318 39.482C247.215 39.4743 246.115 39.5176 245.018 39.6122L245.061 40.1103ZM248.315 39.982L248.311 40.482C249.414 40.4898 250.514 40.4467 251.612 40.3528L251.569 39.8546L251.527 39.3564C250.46 39.4477 249.39 39.4896 248.318 39.482L248.315 39.982ZM251.569 39.8546L251.612 40.3528C252.711 40.2587 253.798 40.1103 254.874 39.9074L254.782 39.4161L254.689 38.9248C253.646 39.1213 252.592 39.2652 251.527 39.3564L251.569 39.8546ZM254.782 39.4161L254.874 39.9074C255.951 39.7045 257.016 39.4452 258.07 39.1296L257.926 38.6506L257.783 38.1716C256.763 38.4773 255.731 38.7283 254.689 38.9248L254.782 39.4161ZM257.926 38.6506L258.07 39.1296C259.165 38.8016 260.156 38.293 261.039 37.6037L260.731 37.2096L260.424 36.8154C259.641 37.4263 258.762 37.8784 257.783 38.1716L257.926 38.6506ZM260.731 37.2096L261.039 37.6037C261.513 37.2335 261.852 36.7863 261.939 36.2506C262.027 35.71 261.841 35.1884 261.495 34.7099L261.09 35.003L260.685 35.296C260.932 35.6386 260.984 35.8953 260.952 36.0902C260.92 36.29 260.782 36.5356 260.424 36.8154L260.731 37.2096ZM261.09 35.003L261.495 34.7099C260.84 33.8053 259.96 33.1437 258.869 32.7242L258.689 33.1908L258.51 33.6575C259.432 34.0121 260.151 34.5586 260.685 35.296L261.09 35.003ZM258.689 33.1908L258.869 32.7242C257.866 32.3383 256.857 31.9384 255.841 31.5246L255.652 31.9876L255.464 32.4506C256.485 32.8669 257.501 33.2692 258.51 33.6575L258.689 33.1908ZM255.652 31.9876L255.841 31.5246C254.797 31.099 253.735 30.7671 252.656 30.5291L252.548 31.0174L252.441 31.5056C253.463 31.7311 254.471 32.046 255.464 32.4506L255.652 31.9876ZM252.548 31.0174L252.656 30.5291C251.581 30.292 250.488 30.1354 249.379 30.0592L249.345 30.5581L249.311 31.0569C250.371 31.1297 251.414 31.2793 252.441 31.5056L252.548 31.0174ZM249.345 30.5581L249.379 30.0592C248.314 29.9861 247.258 29.8518 246.213 29.6564L246.121 30.1478L246.029 30.6393C247.113 30.8419 248.207 30.9811 249.311 31.0569L249.345 30.5581ZM246.121 30.1478L246.213 29.6564C245.146 29.457 244.077 29.264 243.004 29.0775L242.919 29.5701L242.833 30.0627C243.901 30.2485 244.967 30.4407 246.029 30.6393L246.121 30.1478ZM242.919 29.5701L243.004 29.0775C241.912 28.8875 240.811 28.7701 239.701 28.7251L239.681 29.2247L239.661 29.7243C240.727 29.7675 241.784 29.8803 242.833 30.0627L242.919 29.5701ZM239.681 29.2247L239.701 28.7251C238.613 28.6811 237.523 28.6393 236.432 28.5997L236.414 29.0994L236.396 29.5991C237.486 29.6386 238.574 29.6803 239.661 29.7243L239.681 29.2247ZM236.414 29.0994L236.432 28.5997C235.342 28.5602 234.261 28.5202 233.19 28.4797L233.171 28.9793L233.152 29.479C234.224 29.5195 235.306 29.5596 236.396 29.5991L236.414 29.0994ZM233.171 28.9793L233.19 28.4797C232.132 28.4397 231.072 28.3535 230.011 28.2212L229.949 28.7174L229.887 29.2135C230.977 29.3494 232.065 29.4379 233.152 29.479L233.171 28.9793ZM229.949 28.7174L230.011 28.2212C228.906 28.0836 227.793 28.0415 226.673 28.0951L226.697 28.5945L226.721 29.0939C227.784 29.0431 228.84 29.083 229.887 29.2135L229.949 28.7174ZM226.697 28.5945L226.673 28.0951C225.599 28.1464 224.532 28.1396 223.471 28.0748L223.44 28.5739L223.41 29.0729C224.508 29.14 225.611 29.1469 226.721 29.0939L226.697 28.5945ZM223.44 28.5739L223.471 28.0748C222.93 28.0418 222.574 28.0191 222.399 28.0065C222.355 28.0033 222.325 28.0009 222.308 27.9994C222.298 27.9985 222.297 27.9983 222.3 27.9988C222.302 27.9989 222.305 27.9993 222.309 27.9999C222.312 28.0004 222.321 28.0017 222.332 28.0039C222.334 28.0045 222.37 28.0111 222.412 28.0276C222.42 28.0306 222.504 28.0603 222.582 28.137C222.625 28.1792 222.71 28.2788 222.728 28.4368C222.748 28.6133 222.673 28.7493 222.605 28.826C222.544 28.8934 222.481 28.9276 222.454 28.9413C222.421 28.9575 222.393 28.9667 222.377 28.9716C222.345 28.9813 222.32 28.9855 222.31 28.9871C222.287 28.9907 222.269 28.9918 222.264 28.9921C222.257 28.9925 222.252 28.9927 222.249 28.9928C222.246 28.9928 222.244 28.9928 222.244 28.9928C222.242 28.9929 222.245 28.9928 222.255 28.9931C222.274 28.9935 222.306 28.9946 222.351 28.9964L222.37 28.4968L222.39 27.9972C222.344 27.9953 222.306 27.994 222.279 27.9934C222.266 27.9931 222.251 27.9928 222.238 27.9929C222.232 27.9929 222.219 27.993 222.203 27.994C222.197 27.9943 222.178 27.9955 222.154 27.9993C222.144 28.0009 222.118 28.0053 222.086 28.015C222.07 28.0199 222.042 28.0292 222.009 28.0455C221.981 28.0592 221.918 28.0934 221.858 28.1609C221.79 28.2376 221.714 28.3737 221.734 28.5502C221.752 28.7082 221.838 28.8079 221.881 28.8502C221.959 28.9269 222.043 28.9568 222.051 28.9598C222.094 28.9766 222.13 28.9834 222.134 28.9842C222.155 28.9884 222.172 28.9905 222.177 28.9911C222.191 28.9929 222.207 28.9944 222.219 28.9954C222.245 28.9978 222.282 29.0006 222.327 29.0039C222.509 29.0169 222.87 29.04 223.41 29.0729L223.44 28.5739ZM222.37 28.4968L222.351 28.9964C222.725 29.0112 223.452 29.0254 224.527 29.039L224.533 28.5391L224.539 28.0391C223.463 28.0254 222.749 28.0114 222.39 27.9972L222.37 28.4968ZM224.533 28.5391L224.527 29.039C225.621 29.053 226.72 29.0037 227.824 28.8912L227.774 28.3938L227.723 27.8964C226.656 28.005 225.595 28.0525 224.539 28.0391L224.533 28.5391ZM227.774 28.3938L227.824 28.8912C228.884 28.7833 229.947 28.757 231.013 28.8125L231.039 28.3132L231.064 27.8139C229.948 27.7557 228.834 27.7832 227.723 27.8964L227.774 28.3938ZM231.039 28.3132L231.013 28.8125C232.125 28.8704 233.232 28.8558 234.333 28.7686L234.293 28.2702L234.254 27.7718C233.197 27.8554 232.134 27.8695 231.064 27.8139L231.039 28.3132ZM234.293 28.2702L234.333 28.7686C235.411 28.6832 236.487 28.5995 237.561 28.5175L237.523 28.019L237.485 27.5204C236.41 27.6025 235.333 27.6863 234.254 27.7718L234.293 28.2702ZM237.523 28.019L237.561 28.5175C238.644 28.4349 239.726 28.3261 240.808 28.1913L240.746 27.6951L240.684 27.1989C239.618 27.3318 238.552 27.439 237.485 27.5204L237.523 28.019ZM240.746 27.6951L240.808 28.1913C241.876 28.058 242.95 27.9408 244.027 27.8396L243.98 27.3418L243.934 26.844C242.846 26.9461 241.763 27.0644 240.684 27.1989L240.746 27.6951ZM243.98 27.3418L244.027 27.8396C245.128 27.7362 246.218 27.5734 247.297 27.3512L247.196 26.8614L247.096 26.3717C246.052 26.5866 244.998 26.744 243.934 26.844L243.98 27.3418ZM247.196 26.8614L247.297 27.3512C248.364 27.1317 249.428 26.8962 250.489 26.6447L250.374 26.1582L250.259 25.6717C249.207 25.9208 248.152 26.1542 247.096 26.3717L247.196 26.8614ZM250.374 26.1582L250.489 26.6447C251.534 26.3973 252.591 26.1883 253.661 26.0178L253.583 25.524L253.504 25.0303C252.41 25.2047 251.328 25.4185 250.259 25.6717L250.374 26.1582ZM253.583 25.524L253.661 26.0178C254.783 25.839 255.861 25.5312 256.895 25.094L256.7 24.6335L256.505 24.173C255.547 24.5782 254.547 24.864 253.504 25.0303L253.583 25.524ZM256.7 24.6335L256.895 25.094C257.91 24.6644 258.892 24.1722 259.839 23.6173L259.586 23.1859L259.333 22.7545C258.424 23.2874 257.481 23.7602 256.505 24.173L256.7 24.6335ZM259.586 23.1859L259.839 23.6173C260.866 23.0156 261.516 22.1898 261.692 21.1345L261.199 21.0521L260.705 20.9698C260.588 21.6717 260.163 22.2684 259.333 22.7545L259.586 23.1859ZM261.199 21.0521L261.692 21.1345C261.782 20.5958 261.708 20.0842 261.447 19.6265C261.189 19.1764 260.775 18.8192 260.251 18.5369L260.014 18.9771L259.776 19.4172C260.189 19.6397 260.44 19.8807 260.578 20.1223C260.712 20.3563 260.762 20.6298 260.705 20.9698L261.199 21.0521ZM260.014 18.9771L260.251 18.5369C259.278 18.0126 258.247 17.6109 257.158 17.3316L257.034 17.8159L256.91 18.3002C257.921 18.5597 258.876 18.9321 259.776 19.4172L260.014 18.9771ZM257.034 17.8159L257.158 17.3316C256.098 17.0595 255.026 16.8223 253.944 16.6202L253.852 17.1117L253.76 17.6032C254.821 17.8013 255.871 18.0337 256.91 18.3002L257.034 17.8159ZM253.852 17.1117L253.944 16.6202C252.844 16.4149 251.733 16.3022 250.61 16.2819L250.601 16.7818L250.592 17.2817C251.66 17.301 252.716 17.4082 253.76 17.6032L253.852 17.1117ZM250.601 16.7818L250.61 16.2819C249.516 16.2621 248.428 16.2409 247.348 16.2181L247.337 16.718L247.327 17.2179C248.408 17.2407 249.497 17.2619 250.592 17.2817L250.601 16.7818ZM247.337 16.718L247.348 16.2181C246.276 16.1956 245.202 16.1439 244.126 16.0633L244.089 16.5619L244.052 17.0605C245.145 17.1425 246.237 17.195 247.327 17.2179L247.337 16.718ZM244.089 16.5619L244.126 16.0633C243.029 15.981 241.934 15.9409 240.842 15.9431L240.843 16.4431L240.844 16.9431C241.91 16.9409 242.979 16.9801 244.052 17.0605L244.089 16.5619ZM240.843 16.4431L240.842 15.9431C239.742 15.9453 238.646 16.0142 237.552 16.1496L237.614 16.6458L237.675 17.142C238.729 17.0115 239.785 16.9452 240.844 16.9431L240.843 16.4431ZM237.614 16.6458L237.552 16.1496C236.499 16.28 235.442 16.3443 234.38 16.3424L234.379 16.8424L234.378 17.3424C235.482 17.3444 236.581 17.2776 237.675 17.142L237.614 16.6458ZM234.379 16.8424L234.38 16.3424C233.288 16.3405 232.193 16.3686 231.097 16.4267L231.123 16.926L231.15 17.4253C232.228 17.3682 233.304 17.3405 234.378 17.3424L234.379 16.8424ZM231.123 16.926L231.097 16.4267C229.998 16.485 228.903 16.5796 227.813 16.7107L227.872 17.2071L227.932 17.7035C229.001 17.5751 230.073 17.4824 231.15 17.4253L231.123 16.926ZM227.872 17.2071L227.813 16.7107C226.725 16.8413 225.646 16.9966 224.577 17.1764L224.659 17.6695L224.742 18.1625C225.797 17.9853 226.86 17.8323 227.932 17.7035L227.872 17.2071ZM224.659 17.6695L224.577 17.1764C223.515 17.3548 222.784 17.4472 222.364 17.4625L222.383 17.9622L222.401 18.4619C222.892 18.4439 223.68 18.3411 224.742 18.1625L224.659 17.6695ZM222.383 17.9622L222.364 17.4625C222.342 17.4634 222.324 17.4636 222.311 17.4635C222.304 17.4634 222.299 17.4633 222.296 17.4631C222.292 17.4629 222.29 17.4628 222.29 17.4628C222.29 17.4628 222.293 17.4631 222.299 17.4638C222.303 17.4646 222.313 17.4662 222.326 17.4694C222.34 17.4728 222.412 17.4903 222.489 17.5502C222.588 17.6274 222.7 17.787 222.67 18.0017C222.647 18.1603 222.555 18.2511 222.536 18.2699C222.488 18.3177 222.449 18.3315 222.481 18.3156C222.581 18.2665 222.87 18.166 223.401 18.0109L223.26 17.531L223.12 17.0511C222.61 17.2001 222.232 17.3236 222.04 17.4181C221.999 17.4383 221.91 17.4829 221.835 17.5566C221.803 17.5884 221.704 17.6909 221.68 17.86C221.648 18.0851 221.765 18.2539 221.874 18.3391C221.961 18.4069 222.049 18.431 222.085 18.4399C222.13 18.4512 222.172 18.4563 222.203 18.459C222.267 18.4646 222.335 18.4643 222.401 18.4619L222.383 17.9622ZM223.26 17.531L223.401 18.0109C224.441 17.707 225.484 17.4045 226.53 17.1035L226.392 16.623L226.254 16.1425C225.206 16.4439 224.161 16.7467 223.12 17.0511L223.26 17.531ZM226.392 16.623L226.53 17.1035C227.577 16.8025 228.618 16.5051 229.654 16.2114L229.517 15.7304L229.381 15.2494C228.344 15.5434 227.302 15.8411 226.254 16.1425L226.392 16.623ZM229.517 15.7304L229.654 16.2114C230.697 15.9155 231.735 15.5966 232.767 15.2545L232.61 14.7799L232.452 14.3053C231.434 14.6428 230.41 14.9575 229.381 15.2494L229.517 15.7304ZM232.61 14.7799L232.767 15.2545C233.787 14.9165 234.817 14.5939 235.858 14.2867L235.716 13.8072L235.575 13.3276C234.524 13.6379 233.483 13.9637 232.452 14.3053L232.61 14.7799ZM235.716 13.8072L235.858 14.2867C236.899 13.9795 237.942 13.6898 238.987 13.4176L238.861 12.9338L238.735 12.4499C237.679 12.7248 236.626 13.0174 235.575 13.3276L235.716 13.8072ZM238.861 12.9338L238.987 13.4176C240.035 13.145 241.085 12.8838 242.139 12.6339L242.023 12.1474L241.908 11.6609C240.847 11.9124 239.79 12.1754 238.735 12.4499L238.861 12.9338ZM242.023 12.1474L242.139 12.6339C243.208 12.3803 244.266 12.0861 245.311 11.7514L245.158 11.2753L245.006 10.7991C243.985 11.1259 242.953 11.4132 241.908 11.6609L242.023 12.1474ZM245.158 11.2753L245.311 11.7514C246.361 11.4151 247.389 11.0222 248.396 10.5729L248.193 10.1163L247.989 9.65965C247.015 10.0941 246.021 10.4739 245.006 10.7991L245.158 11.2753ZM248.193 10.1163L248.396 10.5729C249.379 10.1343 250.368 9.72135 251.364 9.33413L251.183 8.86813L251.002 8.40214C249.991 8.7953 248.986 9.21447 247.989 9.65965L248.193 10.1163ZM251.183 8.86813L251.364 9.33413C252.373 8.9418 253.377 8.53095 254.375 8.10156L254.178 7.64221L253.98 7.18286C252.992 7.60765 251.999 8.01407 251.002 8.40214L251.183 8.86813ZM254.178 7.64221L254.375 8.10156C255.427 7.64961 256.344 7.02581 257.124 6.23019L256.767 5.88028L256.409 5.53037C255.724 6.22981 254.916 6.78062 253.98 7.18286L254.178 7.64221ZM256.767 5.88028L257.124 6.23019C257.518 5.82824 257.827 5.33627 257.729 4.79588C257.629 4.25 257.16 3.90788 256.649 3.68577L256.45 4.1444L256.251 4.60304C256.683 4.79065 256.739 4.94271 256.745 4.97545C256.752 5.01369 256.748 5.18479 256.409 5.53037L256.767 5.88028ZM256.45 4.1444L256.649 3.68577C255.642 3.24851 254.563 3.02165 253.416 3.00196L253.407 3.50189L253.399 4.00181C254.421 4.01937 255.37 4.22086 256.251 4.60304L256.45 4.1444ZM253.407 3.50189L253.416 3.00196C252.315 2.98306 251.216 3.01723 250.117 3.10445L250.156 3.60288L250.196 4.10131C251.263 4.01663 252.33 3.98347 253.399 4.00181L253.407 3.50189ZM250.156 3.60288L250.117 3.10445C249.032 3.19055 247.951 3.28265 246.875 3.38073L246.92 3.87866L246.966 4.3766C248.038 4.27888 249.115 4.18711 250.196 4.10131L250.156 3.60288ZM246.92 3.87866L246.875 3.38073C245.809 3.47783 244.739 3.54694 243.662 3.58805L243.681 4.08768L243.7 4.58732C244.794 4.54554 245.883 4.4753 246.966 4.3766L246.92 3.87866ZM243.681 4.08768L243.662 3.58805C242.554 3.63036 241.455 3.74814 240.363 3.94137L240.451 4.43371L240.538 4.92605C241.584 4.74079 242.638 4.62789 243.7 4.58732L243.681 4.08768ZM240.451 4.43371L240.363 3.94137C239.292 4.13107 238.222 4.32938 237.153 4.53629L237.248 5.02718L237.343 5.51806C238.407 5.31216 239.472 5.11483 240.538 4.92605L240.451 4.43371ZM237.248 5.02718L237.153 4.53629C236.113 4.73778 235.059 4.85841 233.991 4.89813L234.01 5.39779L234.028 5.89744C235.147 5.85582 236.252 5.72938 237.343 5.51806L237.248 5.02718ZM234.01 5.39779L233.991 4.89813C232.872 4.93978 231.764 5.06889 230.668 5.28548L230.765 5.776L230.862 6.26651C231.906 6.06016 232.961 5.93713 234.028 5.89744L234.01 5.39779ZM230.765 5.776L230.668 5.28548C229.607 5.49511 228.549 5.67266 227.495 5.81816L227.563 6.31347L227.631 6.80878C228.705 6.66059 229.782 6.47983 230.862 6.26651L230.765 5.776ZM227.563 6.31347L227.495 5.81816C226.419 5.96653 225.346 6.15118 224.275 6.37209L224.376 6.86178L224.477 7.35148C225.526 7.13499 226.578 6.9541 227.631 6.80878L227.563 6.31347ZM224.376 6.86178L224.275 6.37209C223.211 6.59154 222.144 6.82395 221.075 7.0693L221.187 7.55664L221.299 8.04397C222.361 7.80025 223.42 7.56942 224.477 7.35148L224.376 6.86178ZM221.187 7.55664L221.075 7.0693C220.027 7.30965 218.977 7.48874 217.924 7.60669L217.98 8.10359L218.035 8.60048C219.127 8.47824 220.214 8.29271 221.299 8.04397L221.187 7.55664ZM217.98 8.10359L217.924 7.60669C216.828 7.72942 215.744 7.9293 214.671 8.20624L214.796 8.69037L214.921 9.17451C215.949 8.90925 216.987 8.71794 218.035 8.60048L217.98 8.10359ZM214.796 8.69037L214.671 8.20624C213.639 8.47248 212.592 8.67887 211.528 8.82537L211.596 9.32069L211.664 9.81602C212.766 9.66429 213.852 9.45047 214.921 9.17451L214.796 8.69037ZM211.596 9.32069L211.528 8.82537C211.258 8.8625 211.051 8.88963 210.905 8.90706C210.831 8.9158 210.776 8.92176 210.737 8.92532C210.686 8.92994 210.689 8.92789 210.713 8.92893C210.718 8.92916 210.752 8.93036 210.797 8.9408C210.816 8.94544 210.871 8.95904 210.932 8.99484C210.986 9.02644 211.136 9.12968 211.172 9.34257C211.208 9.5569 211.099 9.70437 211.056 9.75296C211.009 9.80723 210.961 9.83764 210.944 9.84835C210.905 9.8725 210.872 9.88459 210.867 9.88642C210.845 9.89493 210.841 9.89392 210.891 9.88239C210.969 9.86415 211.11 9.8354 211.318 9.79546L211.224 9.30439L211.13 8.81333C210.921 8.85338 210.764 8.8853 210.664 8.90841C210.625 8.91756 210.563 8.9324 210.511 8.95193C210.499 8.9565 210.461 8.97105 210.419 8.99735C210.4 9.00913 210.351 9.04055 210.303 9.09574C210.259 9.14526 210.15 9.29358 210.186 9.50868C210.222 9.72234 210.373 9.82627 210.428 9.8585C210.49 9.89492 210.546 9.90907 210.568 9.91418C210.616 9.92556 210.656 9.92741 210.669 9.92797C210.724 9.93037 210.788 9.92485 210.828 9.92118C210.88 9.91643 210.945 9.90926 211.023 9.90004C211.178 9.88155 211.393 9.85344 211.664 9.81602L211.596 9.32069ZM211.224 9.30439L211.318 9.79546C212.16 9.63405 213.113 9.43073 214.176 9.1858L214.063 8.69858L213.951 8.21135C212.897 8.45422 211.957 8.65479 211.13 8.81333L211.224 9.30439ZM214.063 8.69858L214.176 9.1858C215.25 8.93813 216.308 8.63741 217.35 8.28363L217.189 7.81018L217.029 7.33674C216.019 7.67968 214.993 7.97121 213.951 8.21135L214.063 8.69858ZM217.189 7.81018L217.35 8.28363C218.379 7.93433 219.404 7.57596 220.427 7.20854L220.258 6.738L220.089 6.26747C219.072 6.6329 218.052 6.98932 217.029 7.33674L217.189 7.81018ZM220.258 6.738L220.427 7.20854C221.431 6.84775 222.449 6.5386 223.48 6.28105L223.359 5.79594L223.238 5.31084C222.174 5.57652 221.124 5.8954 220.089 6.26747L220.258 6.738ZM223.359 5.79594L223.48 6.28105C224.566 6.00993 225.608 5.61519 226.607 5.09726L226.377 4.65337L226.147 4.20948C225.217 4.69176 224.247 5.05873 223.238 5.31084L223.359 5.79594ZM226.377 4.65337L226.607 5.09726C227.666 4.54813 228.321 3.76138 228.298 2.71253L227.798 2.72347L227.298 2.73441C227.31 3.25857 227.017 3.75841 226.147 4.20948L226.377 4.65337ZM227.798 2.72347L228.298 2.71253C228.287 2.19071 228.091 1.73714 227.692 1.40578C227.314 1.09061 226.797 0.923624 226.207 0.852996L226.147 1.34946L226.088 1.84593C226.58 1.9048 226.881 2.03158 227.053 2.1744C227.205 2.30105 227.292 2.46974 227.298 2.73441L227.798 2.72347ZM226.147 1.34946L226.207 0.852996C225.103 0.721034 223.997 0.658117 222.889 0.664283L222.892 1.16428L222.895 1.66427C223.961 1.65833 225.025 1.71887 226.088 1.84593L226.147 1.34946ZM222.892 1.16428L222.889 0.664283C221.806 0.670313 220.728 0.665226 219.656 0.649022L219.648 1.14896L219.641 1.64891C220.72 1.66522 221.805 1.67034 222.895 1.66427L222.892 1.16428ZM219.648 1.14896L219.656 0.649022C218.561 0.632484 217.465 0.677049 216.366 0.782661L216.414 1.28037L216.462 1.77807C217.524 1.67597 218.583 1.63293 219.641 1.64891L219.648 1.14896ZM216.414 1.28037L216.366 0.782661C215.291 0.885948 214.215 0.970061 213.136 1.035L213.166 1.5341L213.196 2.03319C214.287 1.96754 215.375 1.8825 216.462 1.77807L216.414 1.28037ZM213.166 1.5341L213.136 1.035C212.04 1.10094 210.95 1.20179 209.866 1.33755L209.928 1.83368L209.99 2.3298C211.053 2.19672 212.122 2.09785 213.196 2.03319L213.166 1.5341ZM209.928 1.83368L209.866 1.33755C208.798 1.47135 207.727 1.58902 206.654 1.69054L206.701 2.18832L206.748 2.68609C207.831 2.58362 208.912 2.46486 209.99 2.3298L209.928 1.83368ZM206.701 2.18832L206.654 1.69054C205.559 1.7941 204.472 1.95187 203.392 2.16384L203.489 2.65448L203.585 3.14511C204.632 2.93953 205.687 2.78653 206.748 2.68609L206.701 2.18832ZM203.489 2.65448L203.392 2.16384C202.352 2.36813 201.298 2.49966 200.231 2.55841L200.259 3.05765L200.286 3.5569C201.399 3.49562 202.498 3.35838 203.585 3.14511L203.489 2.65448ZM200.259 3.05765L200.231 2.55841C199.112 2.62003 198.01 2.77871 196.924 3.03448L197.039 3.52116L197.153 4.00784C198.182 3.76562 199.226 3.6153 200.286 3.5569L200.259 3.05765ZM197.039 3.52116L196.924 3.03448C195.869 3.28312 194.813 3.52668 193.756 3.76515L193.866 4.25288L193.976 4.74061C195.036 4.50145 196.095 4.25719 197.153 4.00784L197.039 3.52116ZM193.866 4.25288L193.756 3.76515C192.688 4.00635 191.628 4.28202 190.577 4.59215L190.718 5.07172L190.86 5.55129C191.89 5.24727 192.929 4.97705 193.976 4.74061L193.866 4.25288ZM190.718 5.07172L190.577 4.59215C189.543 4.89697 188.504 5.17669 187.459 5.43131L187.577 5.9171L187.696 6.40289C188.756 6.14449 189.811 5.86062 190.86 5.55129L190.718 5.07172ZM187.577 5.9171L187.459 5.43131C186.401 5.68919 185.347 5.9654 184.297 6.25992L184.433 6.74132L184.568 7.22271C185.606 6.93131 186.649 6.65804 187.696 6.40289L187.577 5.9171ZM184.433 6.74132L184.297 6.25992C183.239 6.55705 182.196 6.90239 181.17 7.29594L181.348 7.76282L181.527 8.22969C182.525 7.84717 183.539 7.51151 184.568 7.22271L184.433 6.74132ZM181.348 7.76282L181.17 7.29594C180.166 7.68073 179.152 8.03789 178.129 8.36742L178.282 8.84335L178.435 9.31928C179.476 8.98417 180.507 8.62098 181.527 8.22969L181.348 7.76282ZM178.282 8.84335L178.129 8.36742C177.597 8.53884 177.321 8.60906 177.239 8.61741C177.235 8.61786 177.245 8.61646 177.265 8.61727C177.276 8.61774 177.338 8.61993 177.415 8.65324C177.503 8.69137 177.664 8.8003 177.698 9.02192C177.726 9.20056 177.648 9.32556 177.629 9.35365C177.587 9.41914 177.543 9.44419 177.574 9.42135C177.589 9.41004 177.619 9.38988 177.669 9.35978L177.409 8.93233L177.15 8.50488C177.087 8.54303 177.027 8.58166 176.976 8.61968C176.941 8.64617 176.855 8.71109 176.792 8.80701C176.764 8.8503 176.681 8.98814 176.711 9.17727C176.747 9.40937 176.915 9.52642 177.016 9.57029C177.106 9.60935 177.187 9.61493 177.224 9.61642C177.268 9.61825 177.309 9.61551 177.341 9.61225C177.55 9.59094 177.936 9.48017 178.435 9.31928L178.282 8.84335ZM177.409 8.93233L177.669 9.35978C178.113 9.0898 178.803 8.68498 179.741 8.14411L179.491 7.711L179.242 7.27789C178.303 7.81946 177.605 8.22886 177.15 8.50488L177.409 8.93233ZM179.491 7.711L179.741 8.14411C180.763 7.5545 181.515 6.74716 181.975 5.72406L181.519 5.51898L181.063 5.3139C180.696 6.13105 180.096 6.78505 179.242 7.27789L179.491 7.711ZM181.519 5.51898L181.975 5.72406C182.219 5.1826 182.289 4.62986 182.078 4.11499C181.871 3.60925 181.434 3.24018 180.879 2.97091L180.661 3.42071L180.443 3.87051C180.874 4.07997 181.073 4.29997 181.152 4.49365C181.228 4.6782 181.234 4.93524 181.063 5.3139L181.519 5.51898ZM180.661 3.42071L180.879 2.97091C179.858 2.47531 178.801 2.10677 177.708 1.86597L177.6 2.35427L177.493 2.84257C178.508 3.06624 179.491 3.40866 180.443 3.87051L180.661 3.42071ZM177.6 2.35427L177.708 1.86597C176.64 1.63092 175.568 1.43888 174.492 1.28989L174.423 1.78517L174.355 2.28045C175.405 2.4258 176.451 2.61316 177.493 2.84257L177.6 2.35427ZM174.423 1.78517L174.492 1.28989C173.426 1.14246 172.353 1.00025 171.272 0.86326L171.209 1.35929L171.147 1.85532C172.224 1.99184 173.293 2.13355 174.355 2.28045L174.423 1.78517ZM171.209 1.35929L171.272 0.86326C170.187 0.725654 169.099 0.610163 168.009 0.516789L167.966 1.01496L167.924 1.51314C169 1.60536 170.074 1.71942 171.147 1.85532L171.209 1.35929ZM167.966 1.01496L168.009 0.516789C166.906 0.422237 165.802 0.396009 164.697 0.438125L164.716 0.937762L164.735 1.4374C165.798 1.39686 166.861 1.4221 167.924 1.51314L167.966 1.01496ZM164.716 0.937762L164.697 0.438125C163.625 0.479035 162.551 0.484562 161.476 0.454703L161.462 0.95451L161.448 1.45432C162.545 1.48478 163.641 1.47915 164.735 1.4374L164.716 0.937762ZM161.462 0.95451L161.476 0.454703C160.379 0.424237 159.283 0.429635 158.186 0.470899L158.205 0.970545L158.224 1.47019C159.298 1.42975 160.373 1.42446 161.448 1.45432L161.462 0.95451ZM158.205 0.970545L158.186 0.470899C157.091 0.512128 155.997 0.586213 154.906 0.693152L154.955 1.19077L155.004 1.68838C156.075 1.5834 157.148 1.51067 158.224 1.47019L158.205 0.970545ZM154.955 1.19077L154.906 0.693152C153.82 0.799688 152.736 0.925337 151.655 1.0701L151.721 1.56567L151.788 2.06125C152.857 1.91806 153.929 1.79377 155.004 1.68838L154.955 1.19077ZM151.721 1.56567L151.655 1.0701C150.573 1.21503 149.494 1.38327 148.419 1.57481L148.507 2.06706L148.595 2.55931C149.656 2.37029 150.72 2.20427 151.788 2.06125L151.721 1.56567ZM148.507 2.06706L148.419 1.57481C147.347 1.76594 146.277 1.97248 145.21 2.19444L145.311 2.68397L145.413 3.1735C146.471 2.95348 147.532 2.74875 148.595 2.55931L148.507 2.06706ZM145.311 2.68397L145.21 2.19444C144.147 2.41552 143.086 2.63758 142.028 2.8606L142.131 3.34985L142.234 3.83911C143.291 3.61627 144.351 3.3944 145.413 3.1735L145.311 2.68397ZM142.131 3.34985L142.028 2.8606C140.965 3.08447 139.905 3.32306 138.847 3.57637L138.963 4.06262L139.08 4.54888C140.129 4.29769 141.18 4.0611 142.234 3.83911L142.131 3.34985ZM138.963 4.06262L138.847 3.57637C137.769 3.83448 136.714 4.17269 135.683 4.59089L135.871 5.05425L136.059 5.5176C137.044 5.11814 138.051 4.79528 139.08 4.54888L138.963 4.06262ZM135.871 5.05425L135.683 4.59089C134.621 5.02135 133.663 5.61875 132.811 6.38181L133.145 6.7543L133.478 7.12679C134.244 6.44077 135.104 5.9048 136.059 5.5176L135.871 5.05425ZM133.145 6.7543L132.811 6.38181C132.002 7.10634 131.434 7.5669 131.091 7.7881L131.362 8.20831L131.633 8.62853C132.049 8.36013 132.669 7.85135 133.478 7.12679L133.145 6.7543ZM131.362 8.20831L131.091 7.7881C131.083 7.79318 131.079 7.79476 131.066 7.79428C131.045 7.79355 130.994 7.78558 130.907 7.74002C130.723 7.64478 130.467 7.43178 130.138 7.0492L129.759 7.37548L129.38 7.70176C129.739 8.1192 130.095 8.44502 130.446 8.62739C130.812 8.81751 131.242 8.88022 131.633 8.62853L131.362 8.20831ZM129.759 7.37548L130.138 7.0492C129.394 6.1856 128.475 5.54009 127.389 5.11391L127.206 5.57935L127.024 6.0448C127.963 6.4134 128.746 6.96531 129.38 7.70176L129.759 7.37548ZM127.206 5.57935L127.389 5.11391C126.371 4.7143 125.347 4.33406 124.319 3.97318L124.153 4.44496L123.988 4.91675C125.005 5.27359 126.017 5.64961 127.024 6.0448L127.206 5.57935ZM124.153 4.44496L124.319 3.97318C123.285 3.61032 122.237 3.2846 121.176 2.99601L121.045 3.4785L120.914 3.96099C121.952 4.24329 122.977 4.56188 123.988 4.91675L124.153 4.44496ZM121.045 3.4785L121.176 2.99601C120.116 2.70783 119.05 2.45373 117.98 2.23374L117.879 2.72351L117.778 3.21328C118.829 3.42904 119.874 3.67827 120.914 3.96099L121.045 3.4785ZM117.879 2.72351L117.98 2.23374C116.9 2.012 115.81 1.85259 114.709 1.75548L114.665 2.25355L114.621 2.75161C115.684 2.84537 116.736 2.99926 117.778 3.21328L117.879 2.72351ZM114.665 2.25355L114.709 1.75548C113.631 1.66045 112.557 1.5507 111.484 1.42621L111.427 1.92288L111.369 2.41954C112.451 2.54509 113.534 2.65578 114.621 2.75161L114.665 2.25355ZM111.427 1.92288L111.484 1.42621C110.404 1.30083 109.323 1.18572 108.241 1.08087L108.193 1.57854L108.144 2.07621C109.221 2.18045 110.295 2.29489 111.369 2.41954L111.427 1.92288ZM108.193 1.57854L108.241 1.08087C107.148 0.975069 106.053 0.912095 104.956 0.89195L104.947 1.39187L104.937 1.89178C106.009 1.91145 107.078 1.97293 108.144 2.07621L108.193 1.57854ZM104.947 1.39187L104.956 0.89195C103.888 0.872349 102.822 0.799337 101.759 0.672897L101.7 1.1694L101.641 1.6659C102.737 1.79627 103.836 1.87157 104.937 1.89178L104.947 1.39187ZM101.7 1.1694L101.759 0.672897C100.653 0.54135 99.5446 0.498593 98.4337 0.544658L98.4544 1.04423L98.4751 1.5438C99.5327 1.49995 100.588 1.54064 101.641 1.6659L101.7 1.1694ZM98.4544 1.04423L98.4337 0.544658C97.3638 0.589021 96.2948 0.587148 95.2268 0.539044L95.2043 1.03854L95.1818 1.53803C96.2787 1.58743 97.3765 1.58935 98.4751 1.5438L98.4544 1.04423ZM95.2043 1.03854L95.2268 0.539044C94.136 0.489913 93.0419 0.468158 91.9447 0.473773L91.9473 0.973767L91.9499 1.47376C93.0304 1.46823 94.1077 1.48966 95.1818 1.53803L95.2043 1.03854ZM91.9473 0.973767L91.9447 0.473773C90.8248 0.479505 89.7122 0.588914 88.6072 0.801875L88.7019 1.29284L88.7965 1.7838C89.841 1.58248 90.892 1.47917 91.9499 1.47376L91.9473 0.973767ZM88.7019 1.29284L88.6072 0.801875C87.5515 1.00536 86.4957 1.14551 85.4396 1.22245L85.4759 1.72113L85.5122 2.21981C86.608 2.13998 87.7028 1.9946 88.7965 1.7838L88.7019 1.29284ZM85.4759 1.72113L85.4396 1.22245C84.3371 1.30277 83.2439 1.47064 82.1602 1.72591L82.2748 2.21259L82.3894 2.69927C83.4221 2.45603 84.4629 2.29626 85.5122 2.21981L85.4759 1.72113ZM82.2748 2.21259L82.1602 1.72591C81.0779 1.98083 80.0337 2.31126 79.028 2.71742L79.2152 3.18104L79.4024 3.64466C80.3598 3.25805 81.3553 2.94285 82.3894 2.69927L82.2748 2.21259ZM79.2152 3.18104L79.028 2.71742C78.4822 2.93784 78.0326 3.23838 77.722 3.64068C77.4055 4.05052 77.2588 4.53327 77.2701 5.06336L77.77 5.05277L78.2698 5.04218C78.263 4.72082 78.3482 4.4659 78.5135 4.25184C78.6846 4.03023 78.9667 3.82062 79.4024 3.64466L79.2152 3.18104ZM77.77 5.05277L77.2701 5.06336C77.2921 6.10248 77.8252 6.9857 78.7535 7.70881L79.0608 7.31436L79.368 6.91991C78.6113 6.33043 78.2839 5.70592 78.2698 5.04218L77.77 5.05277ZM79.0608 7.31436L78.7535 7.70881C79.6385 8.39824 80.6226 8.93873 81.7032 9.33053L81.8736 8.86048L82.044 8.39042C81.0592 8.03333 80.168 7.54307 79.368 6.91991L79.0608 7.31436ZM81.8736 8.86048L81.7032 9.33053C81.9602 9.42373 82.1539 9.49581 82.2864 9.54736C82.3531 9.57333 82.4003 9.59254 82.4307 9.60571C82.438 9.60887 82.4436 9.61138 82.4477 9.61329C82.452 9.61526 82.4539 9.61618 82.4539 9.61618C82.4538 9.61615 82.4529 9.61568 82.4513 9.61481C82.4497 9.61397 82.4468 9.61242 82.4429 9.6102C82.4384 9.60759 82.4184 9.59618 82.3938 9.57696C82.3815 9.56744 82.3579 9.54814 82.332 9.51936C82.3116 9.49667 82.2562 9.43196 82.2256 9.32943C82.1874 9.20099 82.1955 9.02695 82.3114 8.8794C82.4032 8.76241 82.5174 8.72289 82.5582 8.71053C82.6433 8.68479 82.7136 8.68989 82.7179 8.69008C82.7378 8.69098 82.7517 8.693 82.7549 8.69346C82.7624 8.69456 82.749 8.69261 82.6972 8.6794C82.6046 8.65576 82.4497 8.61197 82.2275 8.54604L82.0853 9.0254L81.9431 9.50475C82.1667 9.57108 82.3373 9.6196 82.4499 9.64834C82.5008 9.66133 82.56 9.67558 82.61 9.68291C82.6238 9.68493 82.6464 9.68788 82.6731 9.68908C82.6844 9.68958 82.7596 9.69437 82.8478 9.66769C82.8902 9.65486 83.0055 9.6147 83.0979 9.49694C83.2144 9.34861 83.2226 9.17362 83.1841 9.0441C83.1532 8.94047 83.097 8.87451 83.0753 8.85041C83.0482 8.82023 83.0228 8.79936 83.0084 8.78813C82.9603 8.7507 82.9114 8.72687 82.8992 8.72081C82.8763 8.7094 82.8517 8.69833 82.8284 8.68819C82.781 8.66765 82.7203 8.64318 82.6491 8.61546C82.5057 8.55965 82.3034 8.48445 82.044 8.39042L81.8736 8.86048ZM82.0853 9.0254L82.2275 8.54604C81.3375 8.28201 80.3753 7.99171 79.341 7.67513L79.1947 8.15323L79.0483 8.63133C80.085 8.94863 81.0499 9.23977 81.9431 9.50475L82.0853 9.0254ZM79.1947 8.15323L79.341 7.67513C78.3141 7.3608 77.2954 7.0189 76.2848 6.64942L76.1131 7.11902L75.9414 7.58862C76.9687 7.96421 78.0043 8.31178 79.0483 8.63133L79.1947 8.15323ZM76.1131 7.11902L76.2848 6.64942C75.2422 6.26824 74.1762 5.96754 73.087 5.74737L72.988 6.23746L72.8889 6.72754C73.9287 6.93774 74.9462 7.22475 75.9414 7.58862L76.1131 7.11902ZM72.988 6.23746L73.087 5.74737C72.0382 5.53536 71.0026 5.2738 69.9804 4.96269L69.8348 5.44103L69.6892 5.91936C70.7421 6.2398 71.8087 6.5092 72.8889 6.72754L72.988 6.23746ZM69.8348 5.44103L69.9804 4.96269C68.9383 4.64556 67.8916 4.34291 66.8402 4.05475L66.708 4.53696L66.5759 5.01918C67.6183 5.30489 68.6561 5.60495 69.6892 5.91936L69.8348 5.44103ZM66.708 4.53696L66.8402 4.05475C65.7708 3.76164 64.6851 3.54438 63.5835 3.40298L63.5198 3.89891L63.4562 4.39484C64.5116 4.53031 65.5515 4.73842 66.5759 5.01918L66.708 4.53696ZM63.5198 3.89891L63.5835 3.40298C62.5231 3.26688 61.4743 3.07309 60.4368 2.82162L60.319 3.30755L60.2012 3.79348C61.2744 4.05361 62.3595 4.25407 63.4562 4.39484L63.5198 3.89891ZM60.319 3.30755L60.4368 2.82162C59.3608 2.56082 58.2726 2.36925 57.1722 2.24692L57.1169 2.74386L57.0617 3.24079C58.12 3.35844 59.1664 3.54266 60.2012 3.79348L60.319 3.30755ZM57.1169 2.74386L57.1722 2.24692C56.1035 2.12811 55.0402 1.97534 53.9825 1.7886L53.8956 2.28099L53.8087 2.77337C54.8874 2.96382 55.9718 3.11963 57.0617 3.24079L57.1169 2.74386ZM53.8956 2.28099L53.9825 1.7886C52.9022 1.59788 51.817 1.44723 50.7268 1.33665L50.6764 1.83409L50.6259 2.33154C51.6916 2.43964 52.7525 2.58692 53.8087 2.77337L53.8956 2.28099ZM50.6764 1.83409L50.7268 1.33665C49.6528 1.2277 48.5819 1.1063 47.5141 0.972434L47.4519 1.46855L47.3897 1.96467C48.4653 2.09952 49.5441 2.22181 50.6259 2.33154L50.6764 1.83409ZM47.4519 1.46855L47.5141 0.972434C46.4273 0.83619 45.3317 0.749022 44.2276 0.710898L44.2103 1.2106L44.193 1.7103C45.2675 1.7474 46.333 1.8322 47.3897 1.96467L47.4519 1.46855ZM44.2103 1.2106L44.2276 0.710898C43.1473 0.673599 42.0729 0.60715 41.0045 0.511559L40.9599 1.00957L40.9154 1.50758C42.0021 1.60481 43.0947 1.67238 44.193 1.7103L44.2103 1.2106ZM40.9599 1.00957L41.0045 0.511559C39.9003 0.412777 38.7923 0.402179 37.6805 0.479696L37.7153 0.978485L37.7501 1.47727C38.8093 1.40342 39.8643 1.41355 40.9154 1.50758L40.9599 1.00957ZM37.7153 0.978485L37.6805 0.479696C36.5592 0.557882 35.4747 0.754054 34.428 1.06884L34.572 1.54766L34.716 2.02647C35.6894 1.73374 36.7004 1.55046 37.7501 1.47727L37.7153 0.978485ZM34.572 1.54766L34.428 1.06884C33.9021 1.227 33.4044 1.47577 33.1868 1.92017C32.9393 2.42576 33.1569 2.92949 33.4673 3.31802L33.8579 3.00591L34.2486 2.6938C34.1414 2.55972 34.1 2.46725 34.0865 2.4146C34.0758 2.37302 34.0832 2.36356 34.085 2.35992C34.0916 2.34645 34.1212 2.29883 34.2266 2.23217C34.3317 2.16564 34.49 2.09442 34.716 2.02647L34.572 1.54766ZM33.8579 3.00591L33.4673 3.31802C34.0674 4.06908 34.9137 4.65031 35.9745 5.07807L36.1615 4.61434L36.3485 4.15062C35.4061 3.77062 34.7166 3.27956 34.2486 2.6938L33.8579 3.00591ZM36.1615 4.61434L35.9745 5.07807C36.9845 5.48528 38.0037 5.86491 39.0323 6.21697L39.1942 5.74391L39.3561 5.27085C38.3444 4.92458 37.3419 4.55117 36.3485 4.15062L36.1615 4.61434ZM39.1942 5.74391L39.0323 6.21697C40.0583 6.56815 41.0925 6.90064 42.1348 7.21444L42.2789 6.73566L42.4231 6.25689C41.3926 5.94667 40.3703 5.61799 39.3561 5.27085L39.1942 5.74391ZM42.2789 6.73566L42.1348 7.21444C43.177 7.52819 44.2233 7.82261 45.2738 8.09771L45.4005 7.61402L45.5272 7.13033C44.4884 6.8583 43.4537 6.56716 42.4231 6.25689L42.2789 6.73566ZM45.4005 7.61402L45.2738 8.09771C46.3117 8.36948 47.3458 8.66376 48.3762 8.98055L48.5231 8.50263L48.67 8.02471C47.6263 7.70381 46.5787 7.40568 45.5272 7.13033L45.4005 7.61402ZM48.5231 8.50263L48.3762 8.98055C49.4129 9.2993 50.3243 9.58082 51.1104 9.82515L51.2588 9.34768L51.4072 8.87021C50.6199 8.6255 49.7074 8.34366 48.67 8.02471L48.5231 8.50263ZM51.2588 9.34768L51.1104 9.82515C51.307 9.88626 51.4397 9.92888 51.5134 9.95424C51.5604 9.97043 51.5577 9.97099 51.5384 9.96168C51.5381 9.96157 51.499 9.9438 51.4554 9.9101C51.4466 9.90329 51.3589 9.83942 51.3052 9.71789C51.2724 9.64349 51.2409 9.52003 51.2825 9.37672C51.3241 9.23366 51.4166 9.14662 51.4835 9.10169C51.593 9.02809 51.7005 9.02063 51.7116 9.01953C51.7445 9.01629 51.7701 9.01718 51.7806 9.01766C51.8034 9.0187 51.8196 9.02119 51.8216 9.02149C51.8286 9.02253 51.817 9.02078 51.7692 9.00951C51.7279 8.99975 51.6713 8.9857 51.5983 8.96701C51.4525 8.92971 51.2485 8.87573 50.9853 8.80478L50.8552 9.28755L50.725 9.77032C50.9897 9.84167 51.1985 9.89692 51.3503 9.93578C51.4878 9.97097 51.609 10.0009 51.6743 10.0106C51.6847 10.0121 51.7075 10.0154 51.7351 10.0166C51.748 10.0172 51.7756 10.0181 51.8099 10.0147C51.8226 10.0134 51.9311 10.0057 52.0412 9.9317C52.1084 9.88656 52.2011 9.79929 52.2428 9.65596C52.2845 9.51238 52.253 9.38862 52.22 9.31388C52.166 9.19169 52.0775 9.12703 52.0675 9.11929C52.0216 9.08374 51.9783 9.06361 51.972 9.06062C51.9288 9.03979 51.8733 9.02055 51.8388 9.00868C51.7495 8.97792 51.6039 8.93136 51.4072 8.87021L51.2588 9.34768ZM50.8552 9.28755L50.9853 8.80478C49.9033 8.51311 48.8075 8.31185 47.6983 8.20112L47.6487 8.69865L47.599 9.19618C48.6535 9.30144 49.6954 9.49278 50.725 9.77032L50.8552 9.28755ZM47.6487 8.69865L47.6983 8.20112C46.6321 8.09468 45.5793 7.93911 44.5399 7.73447L44.4433 8.22505L44.3467 8.71563C45.4175 8.92646 46.5016 9.08662 47.599 9.19618L47.6487 8.69865ZM44.4433 8.22505L44.5399 7.73447C43.4929 7.52832 42.4418 7.29454 41.3868 7.03311L41.2665 7.51843L41.1462 8.00375C42.2167 8.26901 43.2835 8.50631 44.3467 8.71563L44.4433 8.22505ZM41.2665 7.51843L41.3868 7.03311C40.3127 6.76696 39.2366 6.54013 38.1584 6.35264L38.0728 6.84525L37.9871 7.33786C39.0418 7.52126 40.0948 7.74321 41.1462 8.00375L41.2665 7.51843ZM38.0728 6.84525L38.1584 6.35264C37.0922 6.16722 36.0298 5.98211 34.9714 5.79733L34.8854 6.28988L34.7994 6.78243C35.858 6.96725 36.9206 7.15239 37.9871 7.33786L38.0728 6.84525ZM34.8854 6.28988L34.9714 5.79733C33.9145 5.61282 32.8513 5.42149 31.7815 5.22335L31.6905 5.71498L31.5994 6.20662C32.6725 6.40539 33.7391 6.59732 34.7994 6.78243L34.8854 6.28988ZM31.6905 5.71498L31.7815 5.22335C30.7017 5.02333 29.6182 4.85119 28.5308 4.70691L28.465 5.20257L28.3993 5.69822C29.4697 5.84025 30.5364 6.00971 31.5994 6.20662L31.6905 5.71498ZM28.465 5.20257L28.5308 4.70691C27.4546 4.56412 26.3812 4.41265 25.3104 4.2525L25.2365 4.747L25.1625 5.2415C26.2387 5.40247 27.3176 5.55471 28.3993 5.69822L28.465 5.20257ZM25.2365 4.747L25.3104 4.2525C24.2148 4.08864 23.1111 3.99847 21.9993 3.98197L21.9918 4.48191L21.9844 4.98186C23.0518 4.9977 24.1112 5.08425 25.1625 5.2415L25.2365 4.747ZM21.9918 4.48191L21.9993 3.98197C20.9347 3.96617 19.88 3.87091 18.835 3.69622L18.7526 4.18937L18.6702 4.68253C19.765 4.86555 20.8698 4.96532 21.9844 4.98186L21.9918 4.48191ZM18.7526 4.18937L18.835 3.69622C17.7389 3.51298 16.637 3.41816 15.5294 3.41183L15.5265 3.91182L15.5237 4.41181C16.5777 4.41784 17.6265 4.50805 18.6702 4.68253L18.7526 4.18937ZM15.5265 3.91182L15.5294 3.41183C14.4582 3.4057 13.3865 3.36868 12.3144 3.30077L12.2828 3.79977L12.2511 4.29877C13.3424 4.36789 14.4332 4.40557 15.5237 4.41181L15.5265 3.91182ZM12.2828 3.79977L12.3144 3.30077C11.2206 3.23148 10.1286 3.20206 9.03844 3.21252L9.04323 3.7125L9.04803 4.21247C10.1138 4.20225 11.1815 4.23101 12.2511 4.29877L12.2828 3.79977ZM9.04323 3.7125L9.03844 3.21252C7.90596 3.22338 6.83212 3.41564 5.82039 3.7922L5.9948 4.2608L6.16921 4.72939C7.06611 4.39556 8.02456 4.22229 9.04803 4.21247L9.04323 3.7125ZM5.9948 4.2608L5.82039 3.7922C5.31174 3.98152 4.81139 4.29825 4.71434 4.85603C4.62054 5.39512 4.95743 5.88334 5.35548 6.27527L5.70629 5.91899L6.05709 5.56271C5.69317 5.20438 5.69716 5.04109 5.69954 5.02745C5.70006 5.02443 5.70145 5.0181 5.7087 5.00636C5.7166 4.99355 5.73329 4.97159 5.76692 4.94252C5.83736 4.88164 5.96279 4.80622 6.16921 4.72939L5.9948 4.2608ZM5.70629 5.91899L5.35548 6.27527C6.16366 7.07105 7.09927 7.69058 8.15877 8.13285L8.35138 7.67143L8.54399 7.21002C7.60063 6.81624 6.77284 6.26748 6.05709 5.56271L5.70629 5.91899ZM8.35138 7.67143L8.15877 8.13285C9.15744 8.54972 10.1482 8.97381 11.131 9.40512L11.3319 8.94727L11.5329 8.48942C10.5445 8.05566 9.54818 7.62919 8.54399 7.21002L8.35138 7.67143ZM11.3319 8.94727L11.131 9.40512C12.1352 9.84579 13.1651 10.2253 14.2209 10.5436L14.3652 10.0649L14.5095 9.58616C13.4921 9.27941 12.4999 8.91383 11.5329 8.48942L11.3319 8.94727ZM14.3652 10.0649L14.2209 10.5436C15.257 10.856 16.2928 11.1698 17.3283 11.485L17.4739 11.0067L17.6195 10.5284C16.5832 10.2129 15.5465 9.89882 14.5095 9.58616L14.3652 10.0649ZM17.4739 11.0067L17.3283 11.485C18.3623 11.7998 19.3944 12.1205 20.4245 12.4472L20.5757 11.9706L20.7268 11.494C19.693 11.1661 18.6572 10.8443 17.6195 10.5284L17.4739 11.0067ZM20.5757 11.9706L20.4245 12.4472C21.4448 12.7707 22.4552 13.1325 23.4557 13.5325L23.6413 13.0682L23.8269 12.6039C22.8039 12.1949 21.7705 11.8249 20.7268 11.494L20.5757 11.9706ZM23.6413 13.0682L23.4557 13.5325C24.4802 13.9421 25.5206 14.3094 26.5768 14.6343L26.7238 14.1564L26.8708 13.6785C25.8407 13.3616 24.8261 13.0034 23.8269 12.6039L23.6413 13.0682ZM26.7238 14.1564L26.5768 14.6343C27.6278 14.9577 28.6813 15.2534 29.7372 15.5214L29.8602 15.0368L29.9832 14.5521C28.9436 14.2883 27.9061 13.9971 26.8708 13.6785L26.7238 14.1564ZM29.8602 15.0368L29.7372 15.5214C30.7788 15.7858 31.8131 16.0694 32.8401 16.3723L32.9815 15.8927L33.123 15.4131C32.0837 15.1066 31.0371 14.8196 29.9832 14.5521L29.8602 15.0368ZM32.9815 15.8927L32.8401 16.3723C33.8815 16.6794 34.936 16.9611 36.0036 17.2175L36.1204 16.7314L36.2371 16.2452C35.1859 15.9927 34.1479 15.7153 33.123 15.4131L32.9815 15.8927ZM36.1204 16.7314L36.0036 17.2175C37.0678 17.4731 38.1335 17.7124 39.2008 17.9354L39.3031 17.446L39.4054 16.9565C38.3478 16.7356 37.2917 16.4985 36.2371 16.2452L36.1204 16.7314ZM39.3031 17.446L39.2008 17.9354C39.7483 18.0498 40.0227 18.127 40.1001 18.1623C40.1342 18.1779 40.0543 18.1511 39.9826 18.0603C39.9368 18.0021 39.8552 17.865 39.8897 17.6782C39.9224 17.5007 40.0376 17.4062 40.085 17.3735C40.1674 17.3166 40.2368 17.3117 40.2012 17.3181C40.1888 17.3203 40.1587 17.3242 40.1043 17.3276L40.1356 17.8266L40.1669 18.3257C40.2394 18.3211 40.3116 18.3142 40.377 18.3025C40.4192 18.2949 40.5419 18.2732 40.653 18.1965C40.7148 18.1538 40.8382 18.0487 40.8731 17.8598C40.9096 17.6616 40.824 17.5123 40.768 17.4413C40.6761 17.3246 40.5512 17.269 40.516 17.2529C40.3159 17.1614 39.9203 17.0641 39.4054 16.9565L39.3031 17.446ZM40.1356 17.8266L40.1043 17.3276C39.6589 17.3555 38.9229 17.2891 37.8665 17.107L37.7815 17.5997L37.6966 18.0924C38.7641 18.2765 39.5975 18.3613 40.1669 18.3257L40.1356 17.8266ZM37.7815 17.5997L37.8665 17.107C36.7946 16.9222 35.7139 16.7691 34.6244 16.6478L34.5691 17.1447L34.5137 17.6416C35.5835 17.7608 36.6445 17.9111 37.6966 18.0924L37.7815 17.5997ZM34.5691 17.1447L34.6244 16.6478C33.5312 16.526 32.4327 16.449 31.329 16.4169L31.3145 16.9167L31.3 17.4165C32.3765 17.4478 33.4477 17.5229 34.5137 17.6416L34.5691 17.1447ZM31.3145 16.9167L31.329 16.4169C30.2324 16.385 29.1388 16.375 28.0483 16.3868L28.0537 16.8867L28.0591 17.3867C29.1362 17.3751 30.2165 17.385 31.3 17.4165L31.3145 16.9167ZM28.0537 16.8867L28.0483 16.3868C26.9771 16.3983 25.9099 16.3696 24.8467 16.3006L24.8143 16.7996L24.782 17.2985C25.8704 17.3692 26.9628 17.3985 28.0591 17.3867L28.0537 16.8867ZM24.8143 16.7996L24.8467 16.3006C23.7674 16.2306 22.6869 16.172 21.6053 16.125L21.5836 16.6245L21.5619 17.1241C22.6363 17.1708 23.7097 17.2289 24.782 17.2985L24.8143 16.7996ZM21.5836 16.6245L21.6053 16.125C20.522 16.0779 19.4361 16.0481 18.3478 16.0356L18.3421 16.5356L18.3364 17.0355C19.414 17.0479 20.4892 17.0774 21.5619 17.1241L21.5836 16.6245ZM18.3421 16.5356L18.3478 16.0356C17.2425 16.0229 16.138 16.0841 15.0345 16.219L15.0952 16.7153L15.1559 17.2116C16.2156 17.082 17.2757 17.0234 18.3364 17.0355L18.3421 16.5356ZM15.0952 16.7153L15.0345 16.219C13.9632 16.35 12.8899 16.4474 11.8145 16.5111L11.8441 17.0103L11.8737 17.5094C12.9699 17.4444 14.064 17.3451 15.1559 17.2116L15.0952 16.7153ZM11.8441 17.0103L11.8145 16.5111C10.7131 16.5765 9.62202 16.693 8.54139 16.8607L8.61808 17.3548L8.69477 17.8489C9.74389 17.686 10.8035 17.5728 11.8737 17.5094L11.8441 17.0103ZM8.61808 17.3548L8.54139 16.8607C7.47159 17.0268 6.39871 17.2097 5.32276 17.4094L5.41403 17.901L5.5053 18.3926C6.57166 18.1946 7.63482 18.0134 8.69477 17.8489L8.61808 17.3548ZM5.41403 17.901L5.32276 17.4094C4.2083 17.6163 3.13725 17.9656 2.11066 18.4568L2.32647 18.9079L2.54227 19.3589C3.49012 18.9054 4.47745 18.5835 5.5053 18.3926L5.41403 17.901ZM2.32647 18.9079L2.11066 18.4568C0.990099 18.993 0.297943 19.8591 0.100801 21.0347L0.593916 21.1174L1.08703 21.2001C1.22551 20.3743 1.68839 19.7674 2.54227 19.3589L2.32647 18.9079ZM0.593916 21.1174L0.100801 21.0347C-0.0991988 22.2273 0.319766 23.2445 1.28916 24.0325L1.60453 23.6444L1.91989 23.2564C1.20618 22.6763 0.951404 22.0089 1.08703 21.2001L0.593916 21.1174ZM1.60453 23.6444L1.28916 24.0325C2.16528 24.7446 3.12279 25.3309 4.16058 25.791L4.36324 25.3339L4.56589 24.8768C3.60852 24.4523 2.72689 23.9124 1.91989 23.2564L1.60453 23.6444ZM4.36324 25.3339L4.16058 25.791C5.19745 26.2507 6.27535 26.5705 7.39325 26.7501L7.47256 26.2564L7.55187 25.7628C6.51917 25.5969 5.52418 25.3017 4.56589 24.8768L4.36324 25.3339ZM7.47256 26.2564L7.39325 26.7501C8.44249 26.9187 9.47431 27.1693 10.489 27.5021L10.6448 27.027L10.8006 26.5519C9.73623 26.2028 8.65324 25.9397 7.55187 25.7628L7.47256 26.2564ZM10.6448 27.027L10.489 27.5021C11.5681 27.856 12.6729 28.0703 13.8024 28.1446L13.8352 27.6457L13.8681 27.1468C12.8226 27.078 11.8004 26.8798 10.8006 26.5519L10.6448 27.027ZM13.8352 27.6457L13.8024 28.1446C14.8837 28.2158 15.9581 28.3064 17.0253 28.4163L17.0766 27.919L17.1278 27.4216C16.0482 27.3104 14.9616 27.2188 13.8681 27.1468L13.8352 27.6457ZM17.0766 27.919L17.0253 28.4163C18.1057 28.5277 19.1891 28.6165 20.2756 28.6829L20.3061 28.1838L20.3366 27.6848C19.264 27.6192 18.1944 27.5315 17.1278 27.4216L17.0766 27.919ZM20.3061 28.1838L20.2756 28.6829C21.3563 28.749 22.4379 28.8114 23.5204 28.8703L23.5476 28.371L23.5747 27.8717C22.4944 27.813 21.415 27.7507 20.3366 27.6848L20.3061 28.1838ZM23.5476 28.371L23.5204 28.8703C24.6011 28.929 25.3617 28.9593 25.7918 28.9596L25.7921 28.4596L25.7925 27.9596C25.3927 27.9593 24.657 27.9306 23.5747 27.8717L23.5476 28.371ZM25.7921 28.4596L25.7918 28.9596C25.8812 28.9596 25.9636 28.9597 25.9949 28.9577C25.9958 28.9576 26.0185 28.9564 26.046 28.9518C26.0542 28.9505 26.0703 28.9476 26.0903 28.9424C26.1007 28.9397 26.1548 28.9261 26.2156 28.8908C26.251 28.8682 26.3339 28.7953 26.3766 28.7414C26.4273 28.6474 26.463 28.4218 26.4389 28.301C26.4012 28.2152 26.3085 28.0957 26.2642 28.0583C26.2348 28.0379 26.1834 28.009 26.1621 27.9992C26.1224 27.9821 26.0894 27.9742 26.0787 27.9717C26.0637 27.9682 26.0515 27.966 26.0446 27.9649C26.0306 27.9626 26.0195 27.9614 26.0147 27.9609C26.0041 27.9598 25.9955 27.9593 25.9921 27.9591C25.979 27.9583 25.9646 27.9579 25.9562 27.9577C25.9348 27.9571 25.9023 27.9564 25.8603 27.9558C25.6911 27.953 25.3347 27.9489 24.7927 27.9433L24.7876 28.4433L24.7824 28.9432C25.3251 28.9488 25.6784 28.9529 25.8441 28.9556C25.8858 28.9563 25.9136 28.9569 25.9291 28.9573C25.9391 28.9576 25.9372 28.9576 25.9309 28.9572C25.9292 28.9571 25.9219 28.9567 25.9122 28.9557C25.9079 28.9552 25.8971 28.9541 25.8835 28.9518C25.8767 28.9507 25.8646 28.9486 25.8497 28.9451C25.8391 28.9426 25.8062 28.9347 25.7665 28.9177C25.7453 28.9079 25.6939 28.879 25.6645 28.8586C25.6202 28.8212 25.5275 28.7017 25.4898 28.616C25.4657 28.4952 25.5014 28.2696 25.5521 28.1756C25.5948 28.1217 25.6778 28.0488 25.7131 28.0262C25.7739 27.9909 25.8279 27.9774 25.8382 27.9747C25.8581 27.9695 25.8741 27.9667 25.8822 27.9653C25.8989 27.9626 25.912 27.9613 25.9167 27.9608C25.9229 27.9603 25.9278 27.9599 25.9306 27.9597C25.9419 27.959 25.9106 27.9596 25.7925 27.9596L25.7921 28.4596ZM24.7876 28.4433L24.7927 27.9433C23.6978 27.9321 22.603 27.9547 21.5085 28.0111L21.5342 28.5104L21.56 29.0098C22.6339 28.9544 23.7081 28.9322 24.7824 28.9432L24.7876 28.4433ZM21.5342 28.5104L21.5085 28.0111C20.4123 28.0676 19.3193 28.1634 18.2294 28.2983L18.2908 28.7945L18.3523 29.2907C19.4184 29.1587 20.4877 29.0651 21.56 29.0098L21.5342 28.5104ZM18.2908 28.7945L18.2294 28.2983C17.1398 28.4332 16.0574 28.606 14.9823 28.8167L15.0785 29.3073L15.1746 29.798C16.2266 29.5918 17.2859 29.4227 18.3523 29.2907L18.2908 28.7945ZM15.0785 29.3073L14.9823 28.8167C13.9291 29.0231 12.8742 29.1952 11.8175 29.3332L11.8823 29.829L11.947 30.3248C13.0248 30.184 14.1007 30.0084 15.1746 29.798L15.0785 29.3073ZM11.8823 29.829L11.8175 29.3332C10.7382 29.4741 9.65712 29.6555 8.57446 29.8775L8.67488 30.3673L8.7753 30.8571C9.83469 30.6399 10.8919 30.4625 11.947 30.3248L11.8823 29.829ZM8.67488 30.3673L8.57446 29.8775C7.48319 30.1012 6.41191 30.3912 5.36075 30.7473L5.52121 31.2209L5.68166 31.6945C6.69336 31.3517 7.72453 31.0726 8.7753 30.8571L8.67488 30.3673ZM5.52121 31.2209L5.36075 30.7473C4.28205 31.1128 3.28685 31.6273 2.37701 32.2903L2.67149 32.6944L2.96598 33.0985C3.79291 32.4958 4.69752 32.0279 5.68166 31.6945L5.52121 31.2209ZM2.67149 32.6944L2.37701 32.2903C1.44567 32.9691 0.766489 33.788 0.363719 34.7501L0.824936 34.9432L1.28615 35.1363C1.6087 34.3658 2.16055 33.6855 2.96598 33.0985L2.67149 32.6944ZM0.824936 34.9432L0.363719 34.7501C0.146606 35.2687 0.0899622 35.795 0.231379 36.3088C0.371259 36.817 0.691067 37.2631 1.13853 37.6529L1.46698 37.2759L1.79543 36.899C1.45221 36.5999 1.26966 36.3128 1.19553 36.0434C1.12293 35.7796 1.14061 35.4839 1.28615 35.1363L0.824936 34.9432ZM1.46698 37.2759L1.13853 37.6529C1.99088 38.3955 2.98337 38.9068 4.10833 39.1868L4.2291 38.7016L4.34987 38.2164C3.37337 37.9733 2.52445 37.5341 1.79543 36.899L1.46698 37.2759ZM4.2291 38.7016L4.10833 39.1868C5.16145 39.4489 6.21948 39.704 7.28242 39.952L7.39605 39.4651L7.50968 38.9782C6.45148 38.7313 5.39821 38.4773 4.34987 38.2164L4.2291 38.7016ZM7.39605 39.4651L7.28242 39.952C8.36402 40.2044 9.45165 40.3846 10.5452 40.4924L10.5942 39.9948L10.6433 39.4972C9.59372 39.3938 8.54922 39.2208 7.50968 38.9782L7.39605 39.4651ZM10.5942 39.9948L10.5452 40.4924C11.6212 40.5984 12.7015 40.6904 13.7862 40.7682L13.822 40.2695L13.8578 39.7708C12.7819 39.6936 11.7104 39.6024 10.6433 39.4972L10.5942 39.9948ZM13.822 40.2695L13.7862 40.7682C14.8848 40.847 15.9852 40.8653 17.0873 40.8231L17.0681 40.3235L17.049 39.8239C15.9835 39.8647 14.9198 39.847 13.8578 39.7708L13.822 40.2695ZM17.0681 40.3235L17.0873 40.8231C18.1572 40.7822 19.2264 40.7857 20.2948 40.8337L20.3172 40.3342L20.3397 39.8347C19.2436 39.7855 18.1467 39.7819 17.049 39.8239L17.0681 40.3235ZM20.3172 40.3342L20.2948 40.8337C21.3943 40.8831 22.494 40.8755 23.5938 40.811L23.5645 40.3118L23.5352 39.8127C22.4698 39.8752 21.4047 39.8825 20.3397 39.8347L20.3172 40.3342ZM23.5645 40.3118L23.5938 40.811C24.6615 40.7483 25.7339 40.733 26.811 40.765L26.8258 40.2652L26.8407 39.7654C25.7344 39.7325 24.6325 39.7483 23.5352 39.8127L23.5645 40.3118ZM26.8258 40.2652L26.811 40.765C27.9331 40.7984 29.048 40.7293 30.1553 40.5579L30.0788 40.0638L30.0023 39.5697C28.9556 39.7317 27.9019 39.797 26.8407 39.7654L26.8258 40.2652ZM30.0788 40.0638L30.1553 40.5579C31.2172 40.3935 32.2764 40.2794 33.333 40.2153L33.3027 39.7162L33.2725 39.2171C32.1845 39.2831 31.0944 39.4006 30.0023 39.5697L30.0788 40.0638ZM33.3027 39.7162L33.333 40.2153C34.4076 40.1502 35.4873 40.0772 36.5719 39.9964L36.5348 39.4977L36.4976 38.9991C35.4175 39.0796 34.3425 39.1523 33.2725 39.2171L33.3027 39.7162ZM36.5348 39.4977L36.5719 39.9964C37.6524 39.9158 38.7371 39.8412 39.826 39.7723L39.7944 39.2733L39.7629 38.7743C38.6703 38.8434 37.5819 38.9183 36.4976 38.9991L36.5348 39.4977ZM39.7944 39.2733L39.826 39.7723C40.0947 39.7554 40.2947 39.7478 40.4312 39.7483C40.5002 39.7486 40.5437 39.7509 40.5673 39.7533C40.5791 39.7545 40.5783 39.7549 40.5692 39.7529C40.5661 39.7523 40.5247 39.7439 40.472 39.7149C40.4322 39.6931 40.2667 39.5934 40.2322 39.3675C40.1975 39.1407 40.3268 38.9958 40.3591 38.9625C40.4014 38.919 40.439 38.8986 40.4418 38.897C40.4501 38.8924 40.4511 38.8926 40.4402 38.8971C40.3891 38.9185 40.2728 38.9561 40.0684 39.0096L40.1951 39.4933L40.3217 39.977C40.5291 39.9227 40.705 39.8704 40.8264 39.8195C40.8663 39.8028 40.9841 39.7543 41.0766 39.6591C41.1221 39.6122 41.2571 39.4548 41.2207 39.2166C41.1845 38.9793 41.0098 38.8694 40.9533 38.8384C40.8375 38.7748 40.7114 38.7627 40.668 38.7583C40.5984 38.7513 40.5188 38.7486 40.4348 38.7483C40.2652 38.7477 40.0395 38.7568 39.7629 38.7743L39.7944 39.2733ZM40.1951 39.4933L40.0684 39.0096C39.2427 39.2258 38.3091 39.4763 37.2678 39.761L37.3997 40.2433L37.5316 40.7256C38.5702 40.4416 39.5002 40.1921 40.3217 39.977L40.1951 39.4933ZM37.3997 40.2433L37.2678 39.761C36.2301 40.0448 35.1901 40.3213 34.1479 40.5907L34.2731 41.0748L34.3982 41.5589C35.4449 41.2884 36.4893 41.0106 37.5316 40.7256L37.3997 40.2433ZM34.2731 41.0748L34.1479 40.5907C33.1089 40.8593 32.0587 41.1125 30.9975 41.3503L31.1068 41.8382L31.2162 42.3261C32.2878 42.086 33.3485 41.8303 34.3982 41.5589L34.2731 41.0748ZM31.1068 41.8382L30.9975 41.3503C29.9117 41.5937 28.8477 41.9 27.8057 42.2694L27.9728 42.7407L28.1399 43.212C29.1438 42.856 30.1692 42.5607 31.2162 42.3261L31.1068 41.8382ZM27.9728 42.7407L27.8057 42.2694C26.8079 42.6232 25.7885 42.8953 24.7473 43.0857L24.8372 43.5775L24.9272 44.0694C26.0208 43.8694 27.0918 43.5835 28.1399 43.212L27.9728 42.7407ZM24.8372 43.5775L24.7473 43.0857C23.6557 43.2853 22.587 43.5635 21.5416 43.9204L21.7031 44.3936L21.8647 44.8668C22.8632 44.5259 23.8839 44.2601 24.9272 44.0694L24.8372 43.5775ZM21.7031 44.3936L21.5416 43.9204C20.5206 44.269 19.497 44.615 18.471 44.9583L18.6296 45.4325L18.7883 45.9066C19.8163 45.5626 20.8417 45.216 21.8647 44.8668L21.7031 44.3936ZM18.6296 45.4325L18.471 44.9583C17.4484 45.3005 16.418 45.6293 15.3797 45.9448L15.525 46.4232L15.6704 46.9016C16.7175 46.5834 17.7568 46.2518 18.7883 45.9066L18.6296 45.4325ZM15.525 46.4232L15.3797 45.9448C14.3197 46.2668 13.2802 46.6451 12.2611 47.0797L12.4572 47.5396L12.6533 47.9995C13.6393 47.5791 14.6449 47.2131 15.6704 46.9016L15.525 46.4232ZM12.4572 47.5396L12.2611 47.0797C11.2519 47.51 10.2587 47.9594 9.28175 48.4279L9.49793 48.8787L9.71412 49.3296C10.6777 48.8675 11.6574 48.4242 12.6533 47.9995L12.4572 47.5396ZM9.49793 48.8787L9.28175 48.4279C8.30424 48.8966 7.33336 49.391 6.36913 49.9111L6.60649 50.3511L6.84386 50.7912C7.79429 50.2786 8.75104 49.7914 9.71412 49.3296L9.49793 48.8787ZM6.60649 50.3511L6.36913 49.9111C5.85288 50.1895 5.43517 50.5263 5.21321 50.95C4.9735 51.4076 4.99915 51.8939 5.23094 52.3514L5.67697 52.1255L6.12301 51.8995C6.01714 51.6906 6.02889 51.5479 6.09902 51.414C6.1869 51.2463 6.40278 51.0291 6.84386 50.7912L6.60649 50.3511ZM5.67697 52.1255L5.23094 52.3514C5.67515 53.2283 6.5813 53.6755 7.74789 53.8126L7.80626 53.316L7.86462 52.8195C6.86748 52.7023 6.3541 52.3557 6.12301 51.8995L5.67697 52.1255ZM7.80626 53.316L7.74789 53.8126C8.84784 53.9419 9.94589 54.0102 11.042 54.0175L11.0453 53.5175L11.0486 53.0175C9.98973 53.0105 8.92842 52.9445 7.86462 52.8195L7.80626 53.316ZM11.0453 53.5175L11.042 54.0175C12.138 54.0248 13.24 53.9712 14.3479 53.857L14.2967 53.3596L14.2454 52.8623C13.1731 52.9728 12.1076 53.0246 11.0486 53.0175L11.0453 53.5175ZM14.2967 53.3596L14.3479 53.857C15.4349 53.7449 16.5155 53.6438 17.5898 53.5538L17.5481 53.0556L17.5064 52.5573C16.4256 52.6479 15.3386 52.7495 14.2454 52.8623L14.2967 53.3596ZM17.5481 53.0556L17.5898 53.5538C18.6864 53.462 19.7767 53.3078 20.8608 53.0913L20.7629 52.601L20.6649 52.1107C19.6178 52.3198 18.565 52.4687 17.5064 52.5573L17.5481 53.0556ZM20.7629 52.601L20.8608 53.0913C21.9056 52.8826 22.9604 52.7407 24.0253 52.6656L23.9901 52.1668L23.9549 51.6681C22.848 51.7462 21.7513 51.8937 20.6649 52.1107L20.7629 52.601ZM23.9901 52.1668L24.0253 52.6656C25.1257 52.588 26.2155 52.4631 27.2948 52.2908L27.216 51.7971L27.1372 51.3033C26.0871 51.4709 25.0264 51.5925 23.9549 51.6681L23.9901 52.1668ZM27.216 51.7971L27.2948 52.2908C28.3508 52.1223 29.4109 51.9816 30.4752 51.8687L30.4224 51.3715L30.3697 50.8743C29.288 50.9891 28.2105 51.1321 27.1372 51.3033L27.216 51.7971ZM30.4224 51.3715L30.4752 51.8687C31.5646 51.7532 32.6479 51.5837 33.7252 51.3604L33.6237 50.8709L33.5222 50.3813C32.477 50.5979 31.4262 50.7622 30.3697 50.8743L30.4224 51.3715ZM33.6237 50.8709L33.7252 51.3604C34.7843 51.1409 35.8481 50.9272 36.9165 50.7193L36.821 50.2285L36.7254 49.7377C35.6531 49.9464 34.5854 50.1609 33.5222 50.3813L33.6237 50.8709ZM36.821 50.2285L36.9165 50.7193C37.9843 50.5115 39.0489 50.3127 40.1102 50.123L40.0222 49.6308L39.9342 49.1386C38.8678 49.3292 37.7982 49.5289 36.7254 49.7377L36.821 50.2285ZM40.0222 49.6308L40.1102 50.123C41.1619 49.9349 42.2197 49.7859 43.2837 49.6759L43.2323 49.1786L43.1809 48.6812C42.0924 48.7937 41.0102 48.9462 39.9342 49.1386L40.0222 49.6308ZM43.2323 49.1786L43.2837 49.6759C44.3792 49.5627 45.4696 49.3859 46.555 49.1458L46.447 48.6576L46.339 48.1694C45.2906 48.4014 44.2379 48.5719 43.1809 48.6812L43.2323 49.1786ZM46.447 48.6576L46.555 49.1458C47.6126 48.9118 48.6683 48.7101 49.7221 48.5406L49.6427 48.047L49.5633 47.5533C48.49 47.7259 47.4153 47.9313 46.339 48.1694L46.447 48.6576ZM49.6427 48.047L49.7221 48.5406C50.2572 48.4546 50.6728 48.3762 50.9598 48.3052C51.1 48.2705 51.23 48.2327 51.3331 48.1894C51.382 48.1689 51.4518 48.1362 51.5178 48.0858C51.5618 48.0523 51.7362 47.9131 51.7401 47.6593L51.2401 47.6517L50.7402 47.644C50.7437 47.4134 50.9011 47.2985 50.9115 47.2906C50.944 47.2658 50.9638 47.2599 50.9459 47.2674C50.9155 47.2802 50.8456 47.3033 50.7196 47.3345C50.4741 47.3952 50.0917 47.4683 49.5633 47.5533L49.6427 48.047ZM51.2401 47.6517L51.7401 47.6593C51.7421 47.5237 51.6918 47.3961 51.6039 47.2997C51.5266 47.2148 51.4397 47.1748 51.3876 47.1558C51.2884 47.1197 51.194 47.1168 51.1459 47.1166C51.0351 47.1161 50.9021 47.1339 50.767 47.1575C50.4864 47.2065 50.081 47.3019 49.56 47.4393L49.6874 47.9227L49.8149 48.4062C50.3304 48.2703 50.7021 48.184 50.939 48.1426C51.0627 48.121 51.1236 48.1165 51.1418 48.1166C51.1582 48.1166 51.1121 48.1198 51.0451 48.0953C51.009 48.0822 50.9341 48.0494 50.8647 47.9733C50.7848 47.8855 50.7383 47.768 50.7402 47.644L51.2401 47.6517ZM49.6874 47.9227L49.56 47.4393C48.5075 47.7167 47.4677 48.0463 46.4406 48.4282L46.6148 48.8969L46.7891 49.3655C47.7857 48.995 48.7943 48.6752 49.8149 48.4062L49.6874 47.9227ZM46.6148 48.8969L46.4406 48.4282C45.4531 48.7953 44.4393 49.085 43.3989 49.2971L43.4988 49.7871L43.5987 50.277C44.6893 50.0546 45.7528 49.7508 46.7891 49.3655L46.6148 48.8969ZM43.4988 49.7871L43.3989 49.2971C42.3001 49.5212 41.2299 49.8557 40.189 50.3001L40.3853 50.7599L40.5816 51.2198C41.5611 50.8016 42.5667 50.4874 43.5987 50.277L43.4988 49.7871ZM40.3853 50.7599L40.189 50.3001C39.1836 50.7293 38.1818 51.1379 37.1836 51.5261L37.3648 51.9921L37.546 52.4581C38.5546 52.0659 39.5664 51.6532 40.5816 51.2198L40.3853 50.7599ZM37.3648 51.9921L37.1836 51.5261C36.1388 51.9323 35.1831 52.4622 34.3184 53.1164L34.6201 53.5152L34.9217 53.9139C35.7099 53.3176 36.584 52.8321 37.546 52.4581L37.3648 51.9921ZM34.6201 53.5152L34.3184 53.1164C34.0884 53.2904 33.8911 53.4766 33.7518 53.6786C33.611 53.8828 33.5111 54.1316 33.5351 54.4093C33.5834 54.9703 34.0836 55.3007 34.5539 55.5035L34.7519 55.0444L34.9499 54.5852C34.7503 54.4992 34.6339 54.4213 34.5725 54.3633C34.5156 54.3097 34.5291 54.2967 34.5314 54.3234C34.5333 54.3463 34.5203 54.3258 34.5751 54.2462C34.6315 54.1645 34.7385 54.0525 34.9217 53.9139L34.6201 53.5152ZM34.7519 55.0444L34.5539 55.5035C35.5119 55.9166 36.5491 56.203 37.6631 56.3653L37.7351 55.8705L37.8072 55.3757C36.7721 55.2249 35.8205 54.9606 34.9499 54.5852L34.7519 55.0444ZM37.7351 55.8705L37.6631 56.3653C38.7777 56.5277 39.8999 56.5544 41.0289 56.4456L40.981 55.9479L40.9331 55.4502C39.8834 55.5513 38.8417 55.5264 37.8072 55.3757L37.7351 55.8705ZM40.981 55.9479L41.0289 56.4456C42.0914 56.3433 43.1506 56.3277 44.2068 56.3987L44.2403 55.8998L44.2739 55.401C43.163 55.3262 42.0493 55.3427 40.9331 55.4502L40.981 55.9479ZM44.2403 55.8998L44.2068 56.3987C45.3294 56.4742 46.447 56.4181 47.5588 56.2304L47.4755 55.7373L47.3923 55.2443C46.3575 55.419 45.3183 55.4712 44.2739 55.401L44.2403 55.8998ZM47.4755 55.7373L47.5588 56.2304C48.619 56.0513 49.683 55.9148 50.7508 55.8207L50.7069 55.3226L50.663 54.8246C49.5688 54.921 48.4785 55.0609 47.3923 55.2443L47.4755 55.7373ZM50.7069 55.3226L50.7508 55.8207C51.8441 55.7244 52.9325 55.5877 54.0159 55.4107L53.9352 54.9173L53.8546 54.4238C52.7956 54.5968 51.7318 54.7304 50.663 54.8246L50.7069 55.3226ZM53.9352 54.9173L54.0159 55.4107C55.067 55.239 56.1274 55.1314 57.1972 55.0879L57.1769 54.5883L57.1566 54.0887C56.0466 54.1338 54.9459 54.2455 53.8546 54.4238L53.9352 54.9173ZM57.1769 54.5883L57.1972 55.0879C58.3097 55.0427 59.411 54.9226 60.501 54.7274L60.4129 54.2352L60.3247 53.743C59.2799 53.9301 58.2239 54.0454 57.1566 54.0887L57.1769 54.5883ZM60.4129 54.2352L60.501 54.7274C61.574 54.5352 62.6435 54.3247 63.7093 54.0957L63.6043 53.6069L63.4993 53.118C62.4447 53.3446 61.3865 53.5529 60.3247 53.743L60.4129 54.2352ZM63.6043 53.6069L63.7093 54.0957C64.7719 53.8675 65.8326 53.6315 66.8914 53.3879L66.7792 52.9006L66.6671 52.4133C65.6131 52.6559 64.5571 52.8908 63.4993 53.118L63.6043 53.6069ZM66.7792 52.9006L66.8914 53.3879C67.9418 53.1461 68.9969 52.9237 70.0566 52.7206L69.9625 52.2295L69.8684 51.7385C68.7966 51.9439 67.7295 52.1688 66.6671 52.4133L66.7792 52.9006ZM69.9625 52.2295L70.0566 52.7206C71.1457 52.5119 72.2155 52.227 73.266 51.8659L73.1035 51.3931L72.941 50.9202C71.9351 51.2659 70.911 51.5386 69.8684 51.7385L69.9625 52.2295ZM73.1035 51.3931L73.266 51.8659C74.2856 51.5155 75.312 51.1936 76.3451 50.9002L76.2085 50.4192L76.0719 49.9382C75.0213 50.2366 73.9776 50.564 72.941 50.9202L73.1035 51.3931ZM76.2085 50.4192L76.3451 50.9002C77.3814 50.6059 78.4245 50.3292 79.4743 50.0702L79.3546 49.5848L79.2348 49.0993C78.1737 49.3611 77.1194 49.6408 76.0719 49.9382L76.2085 50.4192ZM79.3546 49.5848L79.4743 50.0702C80.5493 49.8051 81.6039 49.4764 82.6381 49.0844L82.4609 48.6169L82.2837 48.1494C81.2871 48.5271 80.2708 48.8438 79.2348 49.0993L79.3546 49.5848ZM82.4609 48.6169L82.6381 49.0844C83.1461 48.8919 83.5372 48.7427 83.8108 48.637C84.0687 48.5374 84.2514 48.4655 84.3126 48.4357L84.0936 47.9862L83.8747 47.5367C83.877 47.5356 83.8494 47.5477 83.7655 47.5811C83.6907 47.6109 83.5859 47.6518 83.4505 47.7042C83.1798 47.8087 82.7911 47.957 82.2837 48.1494L82.4609 48.6169ZM84.0936 47.9862L84.3126 48.4357C84.3159 48.4341 84.321 48.4316 84.3265 48.4288C84.329 48.4275 84.3343 48.4248 84.3407 48.4212C84.3439 48.4195 84.3496 48.4163 84.3567 48.4121C84.3605 48.4099 84.3787 48.3991 84.4002 48.3831C84.4079 48.3773 84.438 48.3549 84.4703 48.3196C84.4882 48.2989 84.5298 48.2399 84.5511 48.2005C84.5796 48.1278 84.5981 47.9262 84.5686 47.8044C84.5049 47.6872 84.3387 47.5422 84.2574 47.5073C84.2085 47.4939 84.1282 47.483 84.0978 47.4822C84.0457 47.4826 84.0057 47.4914 83.9963 47.4934C83.9688 47.4993 83.9479 47.5063 83.9437 47.5077C83.9358 47.5103 83.9294 47.5126 83.926 47.5139C83.9146 47.5182 83.9048 47.5223 83.9027 47.5232C83.8895 47.5287 83.8689 47.5378 83.8464 47.5479C83.7977 47.5696 83.7165 47.6062 83.6036 47.6573C83.3773 47.7598 83.0199 47.9222 82.5318 48.1444L82.739 48.5995L82.9461 49.0545C83.4342 48.8323 83.7907 48.6703 84.016 48.5683C84.1289 48.5172 84.2078 48.4816 84.2538 48.4611C84.2652 48.456 84.2741 48.4521 84.2808 48.4491C84.2882 48.4459 84.2906 48.4449 84.2902 48.445C84.2898 48.4452 84.2886 48.4457 84.2867 48.4465C84.2854 48.447 84.2808 48.4488 84.2747 48.4511C84.2717 48.4523 84.2657 48.4545 84.258 48.457C84.2541 48.4583 84.2333 48.4653 84.206 48.4711C84.1967 48.4731 84.1567 48.4819 84.1047 48.4822C84.0743 48.4815 83.994 48.4706 83.9451 48.4572C83.8638 48.4223 83.6976 48.2773 83.634 48.1601C83.6044 48.0383 83.6229 47.8367 83.6514 47.764C83.6727 47.7246 83.7143 47.6656 83.7322 47.6449C83.7644 47.6097 83.7945 47.5873 83.8022 47.5816C83.8236 47.5656 83.8416 47.555 83.8452 47.5529C83.852 47.5488 83.8574 47.5458 83.8602 47.5443C83.8658 47.5412 83.8701 47.539 83.8714 47.5384C83.8744 47.5368 83.876 47.5361 83.8747 47.5367L84.0936 47.9862ZM82.739 48.5995L82.5318 48.1444C81.4881 48.6196 80.5853 49.3018 79.8265 50.1864L80.206 50.5119L80.5855 50.8375C81.2516 50.061 82.0375 49.4682 82.9461 49.0545L82.739 48.5995ZM80.206 50.5119L79.8265 50.1864C79.4214 50.6587 79.1711 51.1763 79.1635 51.7321C79.1558 52.2922 79.3957 52.8043 79.7984 53.2595L80.1729 52.9282L80.5474 52.5969C80.2597 52.2718 80.16 51.991 80.1634 51.7458C80.1668 51.4961 80.2782 51.1957 80.5855 50.8375L80.206 50.5119ZM80.1729 52.9282L79.7984 53.2595C80.5633 54.124 81.5374 54.6782 82.7016 54.9216L82.8039 54.4321L82.9062 53.9427C81.9431 53.7414 81.1632 53.2929 80.5474 52.5969L80.1729 52.9282ZM82.8039 54.4321L82.7016 54.9216C83.7676 55.1444 84.8359 55.3597 85.9064 55.5675L86.0017 55.0767L86.097 54.5859C85.0311 54.379 83.9675 54.1646 82.9062 53.9427L82.8039 54.4321ZM86.0017 55.0767L85.9064 55.5675C86.9928 55.7784 88.0825 55.9276 89.1756 56.0151L89.2155 55.5167L89.2554 55.0183C88.1998 54.9338 87.1471 54.7897 86.097 54.5859L86.0017 55.0767ZM89.2155 55.5167L89.1756 56.0151C90.2586 56.1018 91.3454 56.1605 92.4361 56.1912L92.4502 55.6914L92.4642 55.1916C91.3907 55.1614 90.3211 55.1036 89.2554 55.0183L89.2155 55.5167ZM92.4502 55.6914L92.4361 56.1912C93.5004 56.2211 94.5653 56.308 95.631 56.4517L95.6978 55.9562L95.7647 55.4607C94.6644 55.3123 93.5642 55.2225 92.4642 55.1916L92.4502 55.6914ZM95.6978 55.9562L95.631 56.4517C96.7473 56.6023 97.8654 56.6394 98.9847 56.5627L98.9506 56.0639L98.9164 55.5651C97.8647 55.6371 96.8143 55.6023 95.7647 55.4607L95.6978 55.9562ZM98.9506 56.0639L98.9847 56.5627C100.065 56.4887 101.145 56.4305 102.222 56.3881L102.203 55.8885L102.183 55.3889C101.096 55.4317 100.007 55.4904 98.9164 55.5651L98.9506 56.0639ZM102.203 55.8885L102.222 56.3881C103.304 56.3455 104.386 56.3078 105.468 56.2749L105.453 55.7751L105.438 55.2753C104.352 55.3083 103.267 55.3462 102.183 55.3889L102.203 55.8885ZM105.453 55.7751L105.468 56.2749C106.576 56.2412 107.678 56.1294 108.773 55.9396L108.687 55.447L108.602 54.9543C107.553 55.1361 106.499 55.2431 105.438 55.2753L105.453 55.7751ZM108.687 55.447L108.773 55.9396C109.816 55.7587 110.87 55.6681 111.934 55.6678L111.934 55.1678L111.934 54.6678C110.813 54.6681 109.702 54.7636 108.602 54.9543L108.687 55.447ZM111.934 55.1678L111.934 55.6678C113.057 55.6675 114.168 55.5649 115.266 55.3599L115.174 54.8684L115.082 54.3769C114.045 54.5705 112.995 54.6675 111.934 54.6678L111.934 55.1678ZM115.174 54.8684L115.266 55.3599C116.337 55.1599 117.404 54.949 118.467 54.7271L118.364 54.2377L118.262 53.7482C117.207 53.9687 116.147 54.1782 115.082 54.3769L115.174 54.8684ZM118.364 54.2377L118.467 54.7271C119.527 54.5056 120.591 54.278 121.657 54.0442L121.55 53.5558L121.443 53.0674C120.38 53.3005 119.319 53.5274 118.262 53.7482L118.364 54.2377ZM121.55 53.5558L121.657 54.0442C122.755 53.8036 123.815 53.4561 124.838 53.0017L124.635 52.5448L124.432 52.0878C123.471 52.5146 122.475 52.8412 121.443 53.0674L121.55 53.5558ZM124.635 52.5448L124.838 53.0017C125.825 52.5633 126.821 52.1399 127.826 51.7316L127.638 51.2684L127.45 50.8051C126.435 51.2175 125.429 51.645 124.432 52.0878L124.635 52.5448ZM127.638 51.2684L127.826 51.7316C128.911 51.2909 129.837 50.622 130.598 49.7289L130.217 49.4047L129.836 49.0804C129.179 49.8516 128.386 50.4251 127.45 50.8051L127.638 51.2684ZM130.217 49.4047L130.598 49.7289C130.942 49.3241 131.177 49.1528 131.305 49.1044C131.356 49.0852 131.351 49.1 131.318 49.0896C131.286 49.0792 131.29 49.0644 131.321 49.1094L131.735 48.8295L132.149 48.5496C132.028 48.3702 131.856 48.2111 131.621 48.1365C131.386 48.0619 131.154 48.0925 130.951 48.1692C130.573 48.3125 130.2 48.6531 129.836 49.0804L130.217 49.4047ZM131.735 48.8295L131.321 49.1094C131.68 49.6417 132.344 50.2078 133.244 50.811L133.523 50.3956L133.801 49.9803C132.924 49.3926 132.396 48.9146 132.149 48.5496L131.735 48.8295ZM133.523 50.3956L133.244 50.811C134.151 51.4183 135.101 51.9716 136.095 52.471L136.319 52.0242L136.544 51.5774C135.586 51.0963 134.672 50.5639 133.801 49.9803L133.523 50.3956ZM136.319 52.0242L136.095 52.471C137.111 52.9815 138.173 53.3454 139.28 53.5619L139.376 53.0712L139.472 52.5805C138.455 52.3816 137.48 52.0475 136.544 51.5774L136.319 52.0242ZM139.376 53.0712L139.28 53.5619C140.32 53.7654 141.348 54.0381 142.363 54.3801L142.523 53.9062L142.683 53.4324C141.626 53.0765 140.556 52.7925 139.472 52.5805L139.376 53.0712ZM142.523 53.9062L142.363 54.3801C143.437 54.7419 144.539 54.9692 145.666 55.0617L145.707 54.5634L145.748 54.0651C144.702 53.9792 143.68 53.7684 142.683 53.4324L142.523 53.9062ZM145.707 54.5634L145.666 55.0617C146.736 55.1495 147.795 55.2917 148.843 55.4883L148.935 54.9969L149.027 54.5054C147.945 54.3024 146.852 54.1556 145.748 54.0651L145.707 54.5634ZM148.935 54.9969L148.843 55.4883C149.932 55.6925 151.03 55.8185 152.138 55.8664L152.16 55.3668L152.181 54.8673C151.12 54.8215 150.069 54.7009 149.027 54.5054L148.935 54.9969ZM152.16 55.3668L152.138 55.8664C153.21 55.9127 154.279 55.9991 155.344 56.1257L155.403 55.6292L155.462 55.1326C154.372 55.0031 153.278 54.9147 152.181 54.8673L152.16 55.3668ZM155.403 55.6292L155.344 56.1257C156.435 56.2553 157.53 56.3405 158.627 56.3812L158.645 55.8816L158.664 55.3819C157.594 55.3422 156.526 55.2591 155.462 55.1326L155.403 55.6292ZM158.645 55.8816L158.627 56.3812C159.712 56.4215 160.798 56.4564 161.882 56.4858L161.896 55.986L161.91 55.4862C160.828 55.4568 159.746 55.4221 158.664 55.3819L158.645 55.8816ZM161.896 55.986L161.882 56.4858C162.964 56.5151 164.046 56.5499 165.129 56.5901L165.148 56.0904L165.166 55.5908C164.08 55.5505 162.994 55.5156 161.91 55.4862L161.896 55.986ZM165.148 56.0904L165.129 56.5901C166.233 56.6311 167.338 56.6084 168.444 56.5221L168.405 56.0236L168.366 55.5251C167.298 55.6084 166.232 55.6303 165.166 55.5908L165.148 56.0904ZM168.405 56.0236L168.444 56.5221C169.528 56.4375 170.611 56.3622 171.692 56.296L171.662 55.797L171.631 55.2979C170.544 55.3644 169.456 55.4401 168.366 55.5251L168.405 56.0236ZM171.662 55.797L171.692 56.296C172.79 56.2289 173.885 56.116 174.976 55.9575L174.904 55.4627L174.832 54.9679C173.769 55.1225 172.702 55.2325 171.631 55.2979L171.662 55.797ZM174.904 55.4627L174.976 55.9575C176.081 55.797 177.164 55.5484 178.227 55.2118L178.076 54.7351L177.925 54.2584C176.914 54.5787 175.883 54.8152 174.832 54.9679L174.904 55.4627ZM178.076 54.7351L178.227 55.2118C179.313 54.8678 180.311 54.3713 181.218 53.7221L180.927 53.3155L180.636 52.9089C179.816 53.4955 178.913 53.9454 177.925 54.2584L178.076 54.7351ZM180.927 53.3155L181.218 53.7221C181.711 53.3691 182.069 52.9333 182.189 52.3998C182.31 51.8628 182.169 51.3235 181.863 50.8106L181.434 51.0668L181.004 51.323C181.224 51.6914 181.261 51.9674 181.213 52.18C181.165 52.396 181.006 52.644 180.636 52.9089L180.927 53.3155ZM181.434 51.0668L181.863 50.8106C181.285 49.8412 180.459 49.0979 179.402 48.5819L179.183 49.0312L178.964 49.4805C179.856 49.9164 180.531 50.5301 181.004 51.323L181.434 51.0668ZM179.183 49.0312L179.402 48.5819C178.918 48.3456 178.536 48.1503 178.253 47.9954C177.957 47.8337 177.804 47.7337 177.749 47.6874L177.427 48.0701L177.105 48.4528C177.246 48.5714 177.483 48.714 177.773 48.8726C178.075 49.0381 178.473 49.241 178.964 49.4805L179.183 49.0312ZM177.427 48.0701L177.749 47.6874C177.721 47.6644 177.785 47.708 177.831 47.8018C177.855 47.8511 177.929 48.0303 177.825 48.2345C177.724 48.4329 177.542 48.4794 177.495 48.4893C177.399 48.5096 177.331 48.4894 177.365 48.496C177.374 48.4978 177.397 48.5033 177.441 48.5162C177.618 48.5691 177.951 48.6925 178.455 48.8962L178.642 48.4326L178.83 47.969C178.328 47.7661 177.954 47.6259 177.727 47.5579C177.669 47.5406 177.61 47.5249 177.555 47.5143C177.525 47.5085 177.412 47.4849 177.289 47.5107C177.229 47.5234 177.039 47.5749 176.934 47.7805C176.827 47.9919 176.903 48.1806 176.932 48.2415C176.99 48.3587 177.083 48.4345 177.105 48.4528L177.427 48.0701ZM178.642 48.4326L178.455 48.8962C179.483 49.3112 180.534 49.6552 181.61 49.9281L181.733 49.4435L181.856 48.9589C180.824 48.697 179.815 48.367 178.83 47.969L178.642 48.4326ZM181.733 49.4435L181.61 49.9281C182.659 50.1945 183.703 50.4739 184.742 50.7662L184.877 50.2849L185.013 49.8036C183.966 49.5089 182.914 49.2273 181.856 48.9589L181.733 49.4435ZM184.877 50.2849L184.742 50.7662C185.789 51.061 186.839 51.341 187.894 51.6062L188.016 51.1213L188.138 50.6364C187.092 50.3735 186.051 50.0959 185.013 49.8036L184.877 50.2849ZM188.016 51.1213L187.894 51.6062C188.938 51.8689 189.979 52.1497 191.015 52.4488L191.154 51.9684L191.292 51.488C190.245 51.1857 189.193 50.9019 188.138 50.6364L188.016 51.1213ZM191.154 51.9684L191.015 52.4488C192.059 52.7498 193.104 53.0466 194.152 53.3392L194.287 52.8576L194.421 52.376C193.376 52.0842 192.333 51.7882 191.292 51.488L191.154 51.9684ZM194.287 52.8576L194.152 53.3392C195.222 53.638 196.308 53.8569 197.411 53.996L197.473 53.4999L197.536 53.0038C196.482 52.8709 195.444 52.6616 194.421 52.376L194.287 52.8576ZM197.473 53.4999L197.411 53.996C198.48 54.1309 199.544 54.2931 200.602 54.4826L200.69 53.9904L200.778 53.4983C199.703 53.3057 198.622 53.1409 197.536 53.0038L197.473 53.4999ZM200.69 53.9904L200.602 54.4826C201.681 54.6758 202.765 54.8286 203.855 54.9409L203.907 54.4436L203.958 53.9462C202.892 53.8364 201.832 53.6871 200.778 53.4983L200.69 53.9904ZM203.907 54.4436L203.855 54.9409C204.929 55.0516 206.001 55.1752 207.071 55.3115L207.134 54.8156L207.197 54.3196C206.12 54.1822 205.04 54.0577 203.958 53.9462L203.907 54.4436ZM207.134 54.8156L207.071 55.3115C208.134 55.4472 209.197 55.6155 210.258 55.8167L210.351 55.3255L210.444 54.8342C209.363 54.6293 208.281 54.4578 207.197 54.3196L207.134 54.8156ZM210.351 55.3255L210.258 55.8167C211.342 56.0223 212.432 56.1828 213.528 56.2982L213.58 55.8009L213.632 55.3037C212.564 55.1912 211.501 55.0347 210.444 54.8342L210.351 55.3255ZM213.58 55.8009L213.528 56.2982C214.633 56.4145 215.741 56.453 216.85 56.4135L216.833 55.9138L216.815 55.4142C215.752 55.4519 214.691 55.4151 213.632 55.3037L213.58 55.8009ZM216.833 55.9138L216.85 56.4135C217.923 56.3754 218.995 56.3806 220.065 56.429L220.088 55.9295L220.11 55.43C219.013 55.3804 217.915 55.3751 216.815 55.4142L216.833 55.9138ZM220.088 55.9295L220.065 56.429C221.157 56.4785 222.248 56.5012 223.337 56.4973L223.336 55.9973L223.334 55.4973C222.26 55.5012 221.186 55.4788 220.11 55.43L220.088 55.9295ZM223.336 55.9973L223.337 56.4973C224.453 56.4932 225.565 56.3784 226.673 56.153L226.574 55.663L226.474 55.173C225.429 55.3855 224.382 55.4935 223.334 55.4973L223.336 55.9973ZM226.574 55.663L226.673 56.153C227.251 56.0356 227.76 55.8262 228.072 55.4464C228.416 55.028 228.434 54.5164 228.262 54.0196L227.789 54.1838L227.317 54.3479C227.411 54.6184 227.36 54.7369 227.299 54.8116C227.206 54.9249 226.974 55.0715 226.474 55.173L226.574 55.663ZM227.789 54.1838L228.262 54.0196C227.942 53.0988 227.221 52.3755 226.193 51.825L225.957 52.2658L225.721 52.7065C226.603 53.1788 227.104 53.7342 227.317 54.3479L227.789 54.1838ZM225.957 52.2658L226.193 51.825C225.211 51.2989 224.188 50.8677 223.123 50.5313L222.972 51.0081L222.821 51.4849C223.827 51.8026 224.794 52.2098 225.721 52.7065L225.957 52.2658ZM222.972 51.0081L223.123 50.5313C222.075 50.2005 221.017 49.9091 219.948 49.6571L219.833 50.1437L219.719 50.6304C220.764 50.8767 221.798 51.1616 222.821 51.4849L222.972 51.0081ZM219.833 50.1437L219.948 49.6571C218.905 49.4111 217.877 49.1221 216.866 48.79L216.71 49.265L216.554 49.7401C217.593 50.0812 218.648 50.3779 219.719 50.6304L219.833 50.1437ZM216.71 49.265L216.866 48.79C215.842 48.4538 214.817 48.1128 213.791 47.767L213.631 48.2408L213.471 48.7146C214.5 49.0612 215.527 49.403 216.554 49.7401L216.71 49.265ZM213.631 48.2408L213.791 47.767C212.755 47.418 211.924 47.1963 211.315 47.1186L211.251 47.6146L211.188 48.1106C211.697 48.1754 212.452 48.3712 213.471 48.7146L213.631 48.2408ZM211.251 47.6146L211.315 47.1186C211.178 47.1012 211.078 47.0891 211.027 47.0849C211.024 47.0846 210.986 47.0809 210.946 47.0825C210.939 47.0828 210.897 47.0841 210.846 47.0967C210.827 47.1012 210.75 47.1199 210.669 47.1791C210.624 47.2118 210.556 47.2737 210.509 47.3754C210.458 47.4874 210.453 47.6082 210.482 47.7154C210.53 47.8894 210.654 47.9753 210.671 47.9874C210.709 48.0149 210.742 48.0308 210.756 48.0372C210.786 48.0511 210.811 48.059 210.819 48.0614C210.863 48.075 210.92 48.0847 210.938 48.0878C211.075 48.1122 211.415 48.1655 211.95 48.2467L212.025 47.7524L212.1 47.258C211.56 47.1761 211.234 47.1249 211.113 47.1033C211.066 47.095 211.085 47.0968 211.115 47.1063C211.121 47.1082 211.145 47.1156 211.175 47.1292C211.188 47.1353 211.221 47.1511 211.258 47.1784C211.275 47.1903 211.399 47.2761 211.446 47.4498C211.476 47.557 211.47 47.6778 211.419 47.7897C211.373 47.8913 211.305 47.9532 211.26 47.9858C211.179 48.0448 211.102 48.0635 211.084 48.0679C211.033 48.0803 210.992 48.0815 210.987 48.0817C210.953 48.0831 210.928 48.0801 210.943 48.0814C210.968 48.0834 211.045 48.0923 211.188 48.1106L211.251 47.6146ZM212.025 47.7524L211.95 48.2467C213.012 48.4078 214.065 48.6117 215.109 48.8584L215.224 48.3718L215.339 47.8852C214.268 47.6322 213.189 47.4231 212.1 47.258L212.025 47.7524ZM215.224 48.3718L215.109 48.8584C216.182 49.1119 217.258 49.3126 218.338 49.4604L218.405 48.965L218.473 48.4697C217.426 48.3262 216.382 48.1315 215.339 47.8852L215.224 48.3718ZM218.405 48.965L218.338 49.4604C219.396 49.6053 220.461 49.7678 221.535 49.9477L221.618 49.4546L221.7 48.9615C220.617 48.7799 219.541 48.616 218.473 48.4697L218.405 48.965ZM221.618 49.4546L221.535 49.9477C222.608 50.1276 223.673 50.3248 224.731 50.5394L224.83 50.0494L224.93 49.5594C223.861 49.3425 222.784 49.1432 221.7 48.9615L221.618 49.4546ZM224.83 50.0494L224.731 50.5394C225.797 50.7556 226.86 50.9641 227.92 51.1649L228.013 50.6736L228.106 50.1823C227.05 49.9824 225.991 49.7747 224.93 49.5594L224.83 50.0494ZM228.013 50.6736L227.92 51.1649C228.981 51.3657 230.045 51.5598 231.112 51.7472L231.199 51.2547L231.285 50.7622C230.222 50.5756 229.163 50.3823 228.106 50.1823L228.013 50.6736ZM231.199 51.2547L231.112 51.7472C232.186 51.9357 233.268 52.0973 234.357 52.232L234.419 51.7358L234.48 51.2396C233.407 51.1069 232.342 50.9478 231.285 50.7622L231.199 51.2547ZM234.419 51.7358L234.357 52.232C235.431 52.3647 236.499 52.5228 237.562 52.7061L237.647 52.2134L237.732 51.7207C236.653 51.5346 235.569 51.3742 234.48 51.2396L234.419 51.7358ZM237.647 52.2134L237.562 52.7061C238.643 52.8926 239.728 53.0447 240.817 53.1622L240.871 52.6651L240.924 52.168C239.857 52.0527 238.792 51.9036 237.732 51.7207L237.647 52.2134ZM240.871 52.6651L240.817 53.1622C241.896 53.2787 242.975 53.3917 244.053 53.5011L244.103 53.0036L244.154 52.5062C243.078 52.397 242.001 52.2843 240.924 52.168L240.871 52.6651ZM244.103 53.0036L244.053 53.5011C245.148 53.6123 246.245 53.6613 247.342 53.648L247.336 53.1481L247.33 52.6481C246.27 52.6609 245.212 52.6136 244.154 52.5062L244.103 53.0036ZM247.336 53.1481L247.342 53.648C248.396 53.6353 249.457 53.6986 250.524 53.838L250.589 53.3422L250.653 52.8464C249.54 52.701 248.432 52.6348 247.33 52.6481L247.336 53.1481ZM250.589 53.3422L250.524 53.838C251.654 53.9856 252.779 53.9942 253.898 53.8634L253.84 53.3668L253.782 52.8701C252.746 52.9913 251.703 52.9835 250.653 52.8464L250.589 53.3422ZM253.84 53.3668L253.898 53.8634C255.031 53.7309 256.038 53.4209 256.907 52.9227L256.658 52.4889L256.41 52.0552C255.676 52.4754 254.804 52.7506 253.782 52.8701L253.84 53.3668ZM256.658 52.4889L256.907 52.9227C257.35 52.6688 257.769 52.2766 257.732 51.7064C257.699 51.1916 257.295 50.781 256.844 50.4588L256.553 50.8654L256.262 51.2721C256.457 51.4113 256.582 51.5299 256.655 51.6244C256.729 51.7187 256.734 51.7657 256.734 51.7709C256.734 51.7731 256.734 51.7747 256.733 51.7792C256.731 51.7848 256.724 51.8001 256.705 51.8251C256.664 51.879 256.577 51.9593 256.41 52.0552L256.658 52.4889ZM256.553 50.8654L256.844 50.4588C255.946 49.8159 254.984 49.2655 253.961 48.8077L253.757 49.2641L253.553 49.7205C254.516 50.1515 255.419 50.6687 256.262 51.2721L256.553 50.8654ZM253.757 49.2641L253.961 48.8077C252.966 48.3628 251.977 47.924 250.992 47.4914L250.791 47.9491L250.59 48.4069C251.572 48.8386 252.56 49.2765 253.553 49.7205L253.757 49.2641ZM250.791 47.9491L250.992 47.4914C250 47.0553 248.991 46.6463 247.965 46.2644L247.791 46.733L247.616 47.2015C248.624 47.5768 249.615 47.9786 250.59 48.4069L250.791 47.9491ZM247.791 46.733L247.965 46.2644C246.937 45.8813 245.895 45.5386 244.84 45.2361L244.702 45.7167L244.564 46.1973C245.595 46.4927 246.612 46.8274 247.616 47.2015L247.791 46.733ZM244.702 45.7167L244.84 45.2361C243.794 44.9363 242.747 44.6466 241.697 44.3672L241.569 44.8503L241.44 45.3335C242.483 45.6113 243.525 45.8993 244.564 46.1973L244.702 45.7167ZM241.569 44.8503L241.697 44.3672C240.654 44.0894 239.614 43.8008 238.577 43.5013L238.438 43.9817L238.299 44.462C239.343 44.7635 240.39 45.054 241.44 45.3335L241.569 44.8503ZM238.438 43.9817L238.577 43.5013C237.543 43.2027 236.512 42.8824 235.485 42.5406L235.327 43.015L235.169 43.4894C236.209 43.8355 237.252 44.1597 238.299 44.462L238.438 43.9817ZM235.327 43.015L235.485 42.5406C234.455 42.1977 233.427 41.8438 232.403 41.479L232.235 41.9501L232.068 42.4211C233.098 42.7882 234.132 43.1443 235.169 43.4894L235.327 43.015ZM232.235 41.9501L232.403 41.479C231.358 41.107 230.304 40.7958 229.24 40.5456L229.125 41.0323L229.011 41.5191C230.038 41.7606 231.057 42.0613 232.068 42.4211L232.235 41.9501ZM229.125 41.0323L229.24 40.5456C228.192 40.2992 227.136 40.0592 226.072 39.8257L225.965 40.3141L225.858 40.8024C226.917 41.0349 227.968 41.2738 229.011 41.5191L229.125 41.0323ZM225.965 40.3141L226.072 39.8257C225.018 39.5943 223.967 39.3397 222.921 39.062L222.793 39.5453L222.664 40.0285C223.725 40.3099 224.789 40.5679 225.858 40.8024L225.965 40.3141ZM222.793 39.5453L222.921 39.062C221.863 38.7814 221.262 38.6194 221.103 38.5728L220.962 39.0525L220.821 39.5323C220.996 39.5836 221.615 39.7501 222.664 40.0285L222.793 39.5453ZM220.962 39.0525L221.114 38.5762L220.961 38.5273L220.809 39.0036L220.657 39.4799L220.81 39.5289L220.962 39.0525ZM220.809 39.0036L220.931 38.5188L220.834 38.4943L220.712 38.9791L220.589 39.4639L220.686 39.4884L220.809 39.0036Z" fill="#58A7C2"/>
<path d="M53.5483 29.476C53.5483 24.784 54.6063 21.2573 56.7223 18.896C58.869 16.5347 62.365 15.354 67.2103 15.354C72.0556 15.354 75.429 16.3353 77.3303 18.298C79.2316 20.2607 80.1823 23.4807 80.1823 27.958L79.9523 31.5H67.2563V33.064C68.023 33.248 69.1423 33.34 70.6143 33.34C73.7423 33.34 76.2723 33.202 78.2043 32.926L79.1703 32.788V41.436C78.925 41.5893 78.5263 41.7887 77.9743 42.034C77.453 42.2487 76.1803 42.54 74.1563 42.908C72.1323 43.276 69.8783 43.46 67.3943 43.46C62.4876 43.46 58.9456 42.2947 56.7683 39.964C54.6216 37.6333 53.5483 34.1373 53.5483 29.476ZM66.5663 27.406V29.2H69.1883V27.406C69.1883 27.0073 69.0503 26.6853 68.7743 26.44C68.529 26.1947 68.207 26.072 67.8083 26.072C67.4403 26.072 67.1336 26.1947 66.8883 26.44C66.6736 26.6853 66.5663 27.0073 66.5663 27.406ZM96.1719 43H82.4639V15.814H94.0099L94.4699 19.172C94.5312 19.08 94.6079 18.9573 94.6999 18.804C94.7919 18.6507 95.0525 18.39 95.4819 18.022C95.9112 17.6233 96.4019 17.2707 96.9539 16.964C98.4872 16.1973 100.419 15.814 102.75 15.814V30.442L96.1719 29.798V43ZM119.742 15.814H132.76V43H121.168L120.708 39.642C120.585 39.9793 120.309 40.3933 119.88 40.884C119.451 41.3747 118.991 41.7887 118.5 42.126C117.151 43.0153 115.372 43.46 113.164 43.46C110.159 43.46 107.889 42.632 106.356 40.976C104.853 39.32 104.102 36.928 104.102 33.8V15.814H117.12V30.948C117.12 31.316 117.243 31.638 117.488 31.914C117.764 32.1593 118.086 32.282 118.454 32.282C118.822 32.282 119.129 32.1593 119.374 31.914C119.619 31.638 119.742 31.316 119.742 30.948V15.814ZM135.084 36.238V8.73H148.884V31.178H149.85V42.494C148.225 43.138 145.955 43.46 143.042 43.46C140.159 43.46 138.105 42.862 136.878 41.666C135.682 40.47 135.084 38.6607 135.084 36.238ZM151.556 29.476C151.556 24.784 152.614 21.2573 154.73 18.896C156.877 16.5347 160.373 15.354 165.218 15.354C170.064 15.354 173.437 16.3353 175.338 18.298C177.24 20.2607 178.19 23.4807 178.19 27.958L177.96 31.5H165.264V33.064C166.031 33.248 167.15 33.34 168.622 33.34C171.75 33.34 174.28 33.202 176.212 32.926L177.178 32.788V41.436C176.933 41.5893 176.534 41.7887 175.982 42.034C175.461 42.2487 174.188 42.54 172.164 42.908C170.14 43.276 167.886 43.46 165.402 43.46C160.496 43.46 156.954 42.2947 154.776 39.964C152.63 37.6333 151.556 34.1373 151.556 29.476ZM164.574 27.406V29.2H167.196V27.406C167.196 27.0073 167.058 26.6853 166.782 26.44C166.537 26.1947 166.215 26.072 165.816 26.072C165.448 26.072 165.142 26.1947 164.896 26.44C164.682 26.6853 164.574 27.0073 164.574 27.406ZM206.845 25.612L206.615 31.27L207.765 31.224V41.666C207.213 42.126 206.262 42.54 204.913 42.908C203.564 43.276 202.291 43.46 201.095 43.46C199.899 43.46 198.948 43.3527 198.243 43.138C197.538 42.9233 197.016 42.6933 196.679 42.448C196.342 42.172 196.081 41.8653 195.897 41.528C195.621 41.0373 195.483 40.6233 195.483 40.286C193.796 42.402 191.113 43.46 187.433 43.46C182.373 43.46 179.843 41.3133 179.843 37.02C179.843 34.444 180.824 32.6193 182.787 31.546C184.75 30.442 188.184 29.7827 193.091 29.568C193.091 28.4947 191.91 27.958 189.549 27.958C187.954 27.958 186.421 28.1573 184.949 28.556C183.508 28.9547 182.465 29.3533 181.821 29.752L180.809 30.35V18.252C181.085 18.0373 181.499 17.7767 182.051 17.47C182.603 17.1327 183.906 16.7033 185.961 16.182C188.016 15.63 190.27 15.354 192.723 15.354C197.63 15.354 201.202 16.182 203.441 17.838C205.71 19.494 206.845 22.0853 206.845 25.612ZM193.827 32.926V31.086L191.205 31.822V32.926C191.205 33.3247 191.328 33.6467 191.573 33.892C191.849 34.1373 192.171 34.26 192.539 34.26C192.938 34.26 193.244 34.1373 193.459 33.892C193.704 33.6467 193.827 33.3247 193.827 32.926ZM222.81 28.418V43H209.792V15.814H221.338L221.798 19.172C221.92 18.8347 222.196 18.4207 222.626 17.93C223.055 17.4393 223.515 17.0253 224.006 16.688C225.355 15.7987 227.149 15.354 229.388 15.354C232.393 15.354 234.647 16.182 236.15 17.838C237.683 19.494 238.45 21.9013 238.45 25.06V43H225.432V28.418C225.432 28.05 225.294 27.7433 225.018 27.498C224.772 27.222 224.466 27.084 224.098 27.084C223.73 27.084 223.423 27.222 223.178 27.498C222.932 27.7433 222.81 28.05 222.81 28.418Z" fill="#519DB8"/>
<path d="M29.1555 27.6009C33.1847 28.1901 40.6348 27.6009 36.0489 33.4263C36.9246 32.3139 40.6348 26.8128 46.6763 32.3139C43.1521 28.909 46.5862 28.0823 49.697 29.775C48.1866 28.0655 52.2143 29.3518 52.2143 30.3833C52.2143 31.4147 52.2143 41.5574 52.2143 41.5574C49.0751 42.4477 44.6089 42.8929 38.8159 42.8929C33.0553 42.8929 28.6377 41.7014 25.5632 39.3184C22.5211 36.9354 21 33.4001 21 28.7126C21 23.9989 22.5049 20.5291 25.5147 18.3032C28.5244 16.0773 33.0067 14.9644 38.9616 14.9644C41.4535 14.9644 43.7999 15.0822 46.0006 15.3179C48.2336 15.5536 49.8194 15.7893 50.7579 16.0249L52.2143 16.3785V28.909C49.1935 27.6009 42.6486 28.5055 49.787 25.9629C41.3888 29.4982 39.6897 22.8205 39.6897 22.8205C39.6897 22.8205 44.3015 28.7126 29.1555 27.6009Z" fill="#519DB8"/>
</svg>
